<svg preserveAspectRatio="none" width="100%" height="100%" overflow="visible" style="display: block;" viewBox="0 0 16 16" fill="none" xmlns="http://www.w3.org/2000/svg">
<g id="Vector">
<path d="M7.75784 1.65328C7.91341 1.85832 7.9079 2.13517 7.74407 2.33368C7.28561 2.89 6.31361 4.00396 5.34713 4.68044C4.15486 5.51623 3.06859 5.89104 2.51514 6.04383C2.27007 6.11174 2.00849 6.02163 1.86118 5.82443C1.49771 5.33993 0.919473 4.30172 1.14664 2.83254C1.46742 0.743048 3.99102 -0.265132 5.62661 0.236346C7.2622 0.737825 7.75784 1.65328 7.75784 1.65328Z" fill="#FFC107"/>
<path d="M2.73394 5.65288C2.57286 5.71687 2.42693 5.53795 2.53018 5.40605C2.83307 5.02211 3.42095 4.39265 4.49344 3.57252C5.6568 2.68318 6.48148 2.36845 6.93168 2.25745C7.08726 2.21958 7.20703 2.38543 7.11341 2.50949C6.80915 2.91433 6.16896 3.65349 5.12124 4.36261C4.1052 5.05084 3.24334 5.44915 2.73394 5.65288Z" fill="url(#paint0_radial_13013_23730)"/>
<path d="M3.86725 0.783527C3.93058 1.0421 4.27477 1.13221 4.60794 1.07867C4.96865 1.02121 5.42298 0.972887 5.3803 0.625509C5.33625 0.266377 4.73323 0.280743 4.51019 0.292496C4.1839 0.310779 3.8108 0.554989 3.86725 0.783527Z" fill="#FFEE58"/>
<path d="M10.9601 0.127685C12.6067 -0.292826 15.0243 0.245219 15.5089 2.95111C15.6934 3.97888 15.2625 4.88912 14.961 5.37493C14.8123 5.61522 14.5218 5.7432 14.234 5.68835C13.6723 5.58126 12.626 5.2822 11.2244 4.45163C10.4452 3.99064 9.38508 3.09215 8.78481 2.56325C8.51359 2.32427 8.48743 1.92334 8.73112 1.65824C9.20748 1.13978 10.0459 0.361447 10.9601 0.127685Z" fill="#FFC107"/>
<path d="M9.46932 2.57962C9.38259 2.49735 9.46519 2.35892 9.58497 2.38765C10.1109 2.51302 11.0815 2.79379 11.9434 3.30441C12.8272 3.8294 13.7208 4.62732 14.1737 5.05436C14.2632 5.13794 14.1751 5.27898 14.0539 5.24503C13.5005 5.09224 12.483 4.75269 11.4766 4.10887C10.4537 3.4546 9.8025 2.89435 9.46932 2.57962Z" fill="url(#paint1_radial_13013_23730)"/>
<path d="M10.8695 1.18818C10.3257 1.35012 10.1729 0.985764 10.4634 0.708906C10.6726 0.509098 11.5551 0.152578 12.3206 0.304066C12.8259 0.404623 12.9842 1.09546 12.2724 1.08632C11.7878 1.07979 11.5359 0.989681 10.8695 1.18818Z" fill="#FFEE58"/>
<path d="M14.5081 15.3193C12.7941 14.2967 11.6458 12.3052 11.4366 9.99105C11.248 7.90025 11.7821 5.78333 12.2117 4.08301L13.0928 4.46303C12.6825 6.09023 12.3604 7.97861 12.5339 9.90094C12.7128 11.8899 13.6711 13.585 15.0946 14.4338L14.5081 15.3193Z" fill="#03A9F4"/>
<path d="M7.70153 14.9587L7.2472 14.0067C7.78552 13.7756 8.09666 13.1056 7.91218 12.5741C7.82269 12.3142 7.62994 12.0661 7.42756 11.8036C7.26235 11.5894 7.09025 11.3674 6.94982 11.1128C6.5836 10.4467 6.49687 9.65013 6.7144 8.92794C6.82454 8.56359 6.99939 8.24102 7.1701 7.9289C7.36285 7.5763 7.54321 7.2446 7.59002 6.91028C7.63269 6.60077 7.5556 6.27298 7.37662 6.01049C7.21416 5.77411 6.96359 5.57039 6.69788 5.35622C6.49687 5.19297 6.2876 5.02451 6.09623 4.82601C5.64328 4.35587 5.46705 3.79563 5.46981 3.17008L6.23666 2.89453C6.23666 2.89453 6.37571 3.60496 6.56295 3.88835C6.75983 4.18479 7.05308 4.38591 7.33118 4.61053C7.64509 4.86518 8.05123 5.07805 8.30042 5.44371C8.61983 5.91124 8.75888 6.4963 8.68178 7.05001C8.61019 7.56455 8.37477 7.99551 8.1476 8.4121C7.99616 8.69026 7.85298 8.95276 7.77312 9.21786C7.63269 9.68539 7.68776 10.2012 7.92594 10.6322C8.02782 10.8176 8.16688 10.9978 8.31557 11.1898C8.56063 11.5072 8.81395 11.8336 8.95851 12.2515C9.3206 13.2898 8.75613 14.5069 7.70153 14.9587Z" fill="#03A9F4"/>
<path d="M0.807867 15.7452L0.15666 14.9029C4.33237 12.0011 4.77706 7.75156 4.48244 5.58632L5.314 5.34473C5.64029 7.7385 5.43928 12.5274 0.807867 15.7452Z" fill="#F48FB1"/>
<path d="M12.4293 9.22241C12.4541 9.2407 12.4775 9.25767 12.5023 9.27596C12.494 8.84631 12.516 8.41404 12.5587 7.9857C12.1897 7.69447 11.8455 7.38236 11.5977 7.01669C11.5908 7.00625 11.5853 6.9958 11.5784 6.98535C11.5041 7.45549 11.4463 7.93607 11.4187 8.42057C11.7478 8.71963 12.1002 8.98082 12.4293 9.22241Z" fill="#0076C6"/>
<path d="M15.1843 12.0942L14.1848 11.6541C14.4395 11.1344 14.2261 10.5062 13.9425 10.0922C13.5735 9.55417 12.9925 9.12583 12.4294 8.71185C11.825 8.26783 11.1408 7.76504 10.6699 7.06898C9.80394 5.79047 9.95676 4.19854 10.9329 2.99316L11.7328 3.41759C11.0306 4.28604 10.9742 5.58283 11.5965 6.50351C11.9641 7.04809 12.5437 7.47252 13.104 7.88519C13.7098 8.33051 14.3954 8.8346 14.8663 9.52153C15.4335 10.3508 15.556 11.3368 15.1843 12.0942Z" fill="#F44336"/>
<path d="M0.598925 11.734C0.392411 10.6266 1.246 10.0533 1.70446 9.7451C1.75953 9.70854 1.82699 9.66283 1.8738 9.62757C1.86967 9.53485 1.80359 9.41862 1.67968 9.22143C1.47592 8.89625 1.19781 8.44962 1.41121 7.88154C1.59708 7.38789 2.13676 7.22465 2.49472 7.03399C2.80036 6.87074 3.02202 6.67224 3.13216 6.34054C3.2602 5.95398 3.17071 4.98236 3.17071 4.98236L3.84257 4.61017C3.84257 4.61017 4.05459 5.53869 4.05459 6.01144C4.05459 7.35133 3.27121 7.69348 2.94079 7.86978C2.71225 7.99124 2.4961 8.10616 2.44929 8.23153C2.41487 8.32294 2.46306 8.42611 2.62827 8.68991C2.82652 9.00595 3.09637 9.44082 2.92014 9.99584C2.83478 10.2662 2.59523 10.4281 2.3419 10.5979C1.89308 10.8995 1.60396 11.1294 1.68381 11.5525L0.598925 11.734Z" fill="#F44336"/>
<path d="M9.69352 10.3847C9.20339 10.2737 8.86884 9.99688 8.5687 9.76182L9.27085 8.95605C9.27085 8.95605 9.52004 9.30735 10.0666 9.46929L9.69352 10.3847Z" fill="#F44336"/>
<path d="M8.80966 4.50524L7.99599 4.05209L8.58524 3.16797L9.40028 3.62113L8.80966 4.50524Z" fill="#F44336"/>
<path d="M10.9216 14.4723L9.82437 13.8259L10.6711 12.9326L11.5178 13.6953L10.9216 14.4723Z" fill="#F44336"/>
<path d="M14.3963 7.49902L15.0421 6.65267L16.0001 7.31038L15.3544 8.15673L14.3963 7.49902Z" fill="var(--fill-0, #FB8C00)"/>
<path d="M6.6428 7.0936L5.6708 6.4563L6.17607 5.82031L7.14669 6.45761L6.6428 7.0936Z" fill="#F44336"/>
<path d="M7.81864 8.20724C7.81864 8.20724 8.00588 8.20071 8.23856 8.24381C8.40652 7.93038 8.56622 7.6039 8.64883 7.23693C8.36246 7.17555 8.13254 7.20559 8.13254 7.20559L7.81864 8.20724Z" fill="#0076C6"/>
<path d="M9.12488 8.33007C8.74077 8.01926 8.0992 8.04146 8.0992 8.04146L8.41172 7.03981C8.41172 7.03981 9.12213 6.94578 9.60124 7.41984L9.12488 8.33007Z" fill="var(--fill-0, #FB8C00)"/>
<path d="M0 12.4795L0.999002 12.4217L1.06608 13.4644L0.0670757 13.5223L0 12.4795Z" fill="var(--fill-0, #FB8C00)"/>
<path d="M5.30444 12.2981L4.66975 11.444C4.95061 11.256 5.20806 11.0326 5.4311 10.7832L6.27092 11.4597C5.98593 11.777 5.66102 12.0591 5.30444 12.2981Z" fill="var(--fill-0, #FB8C00)"/>
<path d="M5.31262 14.7108C4.9822 14.4522 4.6325 14.2119 4.27179 13.9951L4.86104 13.1123C5.2603 13.3513 5.64717 13.6177 6.01339 13.9037L5.31262 14.7108Z" fill="#F44336"/>
<path d="M11.4559 10.101C11.4945 10.5332 11.5482 10.844 11.6501 11.2489L12.3756 10.6965L11.6693 9.85938L11.4559 10.101Z" fill="#0076C6"/>
<path d="M10.2883 10.7676L11.3979 9.92376L12.0869 10.7389L10.9773 11.5827L10.2883 10.7676Z" fill="#FFC107"/>
<path d="M9.90975 15.9995C9.71701 15.6638 9.50086 15.336 9.26681 15.0252L10.1631 14.418C10.4233 14.7627 10.6628 15.1271 10.8762 15.5006L9.90975 15.9995Z" fill="var(--fill-0, #FB8C00)"/>
</g>
<defs>
<radialGradient id="paint0_radial_13013_23730" cx="0" cy="0" r="1" gradientUnits="userSpaceOnUse" gradientTransform="translate(8.00141 8.00312) scale(7.15312 9.24191)">
<stop offset="0.3755" stop-color="#AF5700"/>
<stop offset="1" stop-color="#8F4700"/>
</radialGradient>
<radialGradient id="paint1_radial_13013_23730" cx="0" cy="0" r="1" gradientUnits="userSpaceOnUse" gradientTransform="translate(7.99712 7.99605) scale(9.78722 15.4708)">
<stop offset="0.3755" stop-color="#AF5700"/>
<stop offset="1" stop-color="#8F4700"/>
</radialGradient>
</defs>
</svg>
