<svg preserveAspectRatio="none" width="100%" height="100%" overflow="visible" style="display: block;" viewBox="0 0 20 20" fill="none" xmlns="http://www.w3.org/2000/svg">
<g id="vector">
<path fill-rule="evenodd" clip-rule="evenodd" d="M14.4175 6.98215C14.7035 7.28177 14.6925 7.75652 14.3929 8.04252L8.89283 13.2925C8.60301 13.5692 8.14693 13.5692 7.85711 13.2925L5.10714 10.6675C4.80752 10.3815 4.79648 9.90676 5.08249 9.60714C5.36849 9.30752 5.84324 9.29648 6.14286 9.58249L8.37497 11.7132L13.3571 6.95748C13.6568 6.67148 14.1315 6.68252 14.4175 6.98215Z" fill="var(--fill-0, #47A25E)"/>
<path fill-rule="evenodd" clip-rule="evenodd" d="M9.75 1.5C5.19365 1.5 1.5 5.19365 1.5 9.75C1.5 14.3063 5.19365 18 9.75 18C14.3063 18 18 14.3063 18 9.75C18 5.19365 14.3063 1.5 9.75 1.5ZM0 9.75C0 4.36522 4.36522 0 9.75 0C15.1348 0 19.5 4.36522 19.5 9.75C19.5 15.1348 15.1348 19.5 9.75 19.5C4.36522 19.5 0 15.1348 0 9.75Z" fill="var(--fill-0, #47A25E)"/>
</g>
</svg>
