<svg preserveAspectRatio="none" width="100%" height="100%" overflow="visible" style="display: block;" viewBox="0 0 20 20" fill="none" xmlns="http://www.w3.org/2000/svg">
<g id="Construction / barricade,barrier,work in process,traffic barrier,">
<path id="Union" d="M15.625 2.375C16.0392 2.375 16.375 2.71079 16.375 3.125V4.04199H17.292C17.3724 4.04203 17.4489 4.05758 17.5215 4.08105C17.5403 4.08711 17.5598 4.09105 17.5781 4.09863C17.6017 4.10838 17.6232 4.12179 17.6455 4.13379C17.7084 4.16763 17.7692 4.20865 17.8223 4.26172C17.8524 4.29191 17.8784 4.32475 17.9023 4.3584C17.9346 4.40381 17.9618 4.45275 17.9834 4.50488C18.0041 4.55499 18.0199 4.60647 18.0293 4.65918C18.037 4.70222 18.042 4.74674 18.042 4.79199V9.79199C18.0418 10.2059 17.7059 10.5418 17.292 10.542H16.375V16.459C16.3746 16.8729 16.039 17.209 15.625 17.209C15.211 17.209 14.8754 16.8729 14.875 16.459V10.542H4.70801V16.459C4.70766 16.8729 4.372 17.209 3.95801 17.209C3.54416 17.2088 3.20836 16.8728 3.20801 16.459V10.542H2.29199C1.87789 10.542 1.54217 10.2061 1.54199 9.79199V4.79199C1.54199 4.37778 1.87778 4.04199 2.29199 4.04199H3.20801V3.125C3.20801 2.71089 3.54394 2.37518 3.95801 2.375C4.37222 2.375 4.70801 2.71079 4.70801 3.125V4.04199H14.875V3.125C14.875 2.71079 15.2108 2.375 15.625 2.375ZM3.81543 9.04199H6.98047L10.4814 5.54199H7.31641L3.81543 9.04199ZM9.10254 9.04199H11.9805L15.4814 5.54199H12.6025L9.10254 9.04199ZM14.1025 9.04199H16.542V6.60254L14.1025 9.04199ZM3.04199 7.69434L5.19531 5.54199H3.04199V7.69434Z" fill="var(--fill-0, #343D54)"/>
</g>
</svg>
