<svg preserveAspectRatio="none" width="100%" height="100%" overflow="visible" style="display: block;" viewBox="0 0 20 20" fill="none" xmlns="http://www.w3.org/2000/svg">
<g id="vector">
<path d="M10 2.5C10.3452 2.5 10.625 2.77982 10.625 3.125V10.3664L12.8394 8.15261C13.0835 7.90856 13.4792 7.90862 13.7232 8.15272C13.9673 8.39683 13.9672 8.79256 13.7231 9.03661L10.4419 12.317C10.1978 12.561 9.80218 12.561 9.55812 12.317L6.27687 9.03661C6.03276 8.79256 6.0327 8.39683 6.27675 8.15272C6.5208 7.90862 6.91652 7.90856 7.16063 8.15261L9.375 10.3664V3.125C9.375 2.77982 9.65482 2.5 10 2.5Z" fill="var(--fill-0, #0033CC)"/>
<path d="M3.75 11.875C3.75 11.5298 3.47018 11.25 3.125 11.25C2.77982 11.25 2.5 11.5298 2.5 11.875V16.25C2.5 16.5815 2.6317 16.8995 2.86612 17.1339C3.10054 17.3683 3.41848 17.5 3.75 17.5H16.25C16.5815 17.5 16.8995 17.3683 17.1339 17.1339C17.3683 16.8995 17.5 16.5815 17.5 16.25V11.875C17.5 11.5298 17.2202 11.25 16.875 11.25C16.5298 11.25 16.25 11.5298 16.25 11.875V16.25H3.75V11.875Z" fill="var(--fill-0, #0033CC)"/>
</g>
</svg>
