<svg preserveAspectRatio="none" width="100%" height="100%" overflow="visible" style="display: block;" viewBox="0 0 24 24" fill="none" xmlns="http://www.w3.org/2000/svg">
<g id="vector">
<path fill-rule="evenodd" clip-rule="evenodd" d="M12 7.50005C9.51472 7.50005 7.5 9.51476 7.5 12C7.5 14.4853 9.51472 16.5 12 16.5C14.4853 16.5 16.5 14.4853 16.5 12C16.5 9.51476 14.4853 7.50005 12 7.50005ZM9 12C9 10.3432 10.3431 9.00005 12 9.00005C13.6569 9.00005 15 10.3432 15 12C15 13.6569 13.6569 15 12 15C10.3431 15 9 13.6569 9 12Z" fill="var(--fill-0, #989FB3)"/>
<path fill-rule="evenodd" clip-rule="evenodd" d="M12 4.49927C8.00054 4.49927 5.195 6.30628 3.40714 8.09433C2.51538 8.9862 1.87233 9.87676 1.45124 10.5456C1.24033 10.8806 1.08403 11.1617 0.979165 11.362C0.926705 11.4621 0.887032 11.5422 0.859757 11.5989C0.846117 11.6272 0.83557 11.6497 0.828067 11.6659L0.819086 11.6855L0.816294 11.6917L0.815321 11.6939C0.81516 11.6942 0.814629 11.6954 1.5 12L0.814629 11.6954C0.728448 11.8894 0.728457 12.1107 0.814654 12.3046L1.5 12C0.814654 12.3046 0.814492 12.3043 0.814654 12.3046L0.815346 12.3062L0.816319 12.3084L0.819111 12.3145L0.828093 12.3341C0.835596 12.3504 0.846145 12.3729 0.859785 12.4012C0.887061 12.4578 0.926735 12.5379 0.979197 12.638C1.08406 12.8382 1.24037 13.1193 1.45128 13.4542C1.87238 14.1229 2.51543 15.0133 3.4072 15.905C5.19508 17.6927 8.00059 19.4993 12 19.4993C15.9994 19.4993 18.8049 17.6927 20.5928 15.905C21.4846 15.0133 22.1276 14.1229 22.5487 13.4542C22.7596 13.1193 22.9159 12.8382 23.0208 12.638C23.0733 12.5379 23.1129 12.4578 23.1402 12.4012C23.1539 12.3729 23.1644 12.3504 23.1719 12.3341L23.1809 12.3145L23.1837 12.3084L23.1847 12.3062C23.1848 12.3058 23.1853 12.3046 22.5 12L23.1853 12.3046C23.2715 12.1107 23.2716 11.8894 23.1854 11.6954L22.5 12C23.1854 11.6954 23.1855 11.6958 23.1854 11.6954L23.1837 11.6917L23.1809 11.6855L23.1719 11.6659C23.1644 11.6497 23.1539 11.6272 23.1402 11.5989C23.113 11.5422 23.0733 11.4621 23.0208 11.362C22.916 11.1617 22.7597 10.8806 22.5488 10.5456C22.1277 9.87676 21.4846 8.9862 20.5929 8.09433C18.805 6.30628 15.9995 4.49927 12 4.49927ZM2.72063 11.3448C2.55354 11.6102 2.42682 11.8347 2.33859 12C2.42682 12.1652 2.55352 12.3896 2.72059 12.6549C3.09637 13.2517 3.67207 14.0486 4.4678 14.8443C6.05492 16.4312 8.49941 17.9993 12 17.9993C15.5006 17.9993 17.9451 16.4312 19.5322 14.8443C20.3279 14.0486 20.9036 13.2517 21.2794 12.6549C21.4465 12.3896 21.5732 12.1652 21.6614 12C21.5732 11.8347 21.4465 11.6102 21.2794 11.3448C20.9036 10.7479 20.3279 9.95076 19.5321 9.15493C17.945 7.56762 15.5005 5.99927 12 5.99927C8.49946 5.99927 6.055 7.56762 4.46786 9.15493C3.67212 9.95076 3.09642 10.7479 2.72063 11.3448Z" fill="var(--fill-0, #989FB3)"/>
</g>
</svg>
