<svg width="16" height="16" viewBox="0 0 16 16" fill="none" xmlns="http://www.w3.org/2000/svg">
<path d="M13.1672 4.20938L10.5321 6.84444L10.2756 6.73836V3.01227H8.74892V6.73836C8.62553 6.78977 8.61633 6.79356 8.49239 6.84444L1.6485 0L0.569366 1.07913L7.4138 7.92357L7.30773 8.18009H3.58163V9.70679H7.30773C7.35914 9.83018 7.36293 9.83938 7.4138 9.96332L4.77875 12.5984L5.85788 13.6775L8.49294 11.0424L8.74946 11.1485V14.8746H10.2762V11.1485C10.3995 11.0971 10.4087 11.0933 10.5327 11.0424L13.1677 13.6775L14.2469 12.5984L11.6118 9.96332L11.7179 9.70679H15.444V8.18009H11.7179C11.6665 8.0567 11.6627 8.0475 11.6118 7.92357L14.2469 5.28851L13.1677 4.20938H13.1672Z" fill="url(#paint0_linear_8697_40)"/>
<defs>
<linearGradient id="paint0_linear_8697_40" x1="13.6859" y1="13.1165" x2="0.569366" y2="-0.806044" gradientUnits="userSpaceOnUse">
<stop stop-color="#0033CC"/>
<stop offset="0.33" stop-color="#0033CC"/>
<stop offset="0.897316" stop-color="#0033CC" stop-opacity="0"/>
</linearGradient>
</defs>
</svg>
