<svg preserveAspectRatio="none" width="100%" height="100%" overflow="visible" style="display: block;" viewBox="0 0 11 13" fill="none" xmlns="http://www.w3.org/2000/svg">
<g id="vector">
<path fill-rule="evenodd" clip-rule="evenodd" d="M0.292893 0.292893C0.480429 0.105357 0.734783 0 1 0H7.00049C7.1331 0 7.26027 0.0526784 7.35404 0.146447L10.854 3.64645C10.9478 3.74022 11.0005 3.86739 11.0005 4V12C11.0005 12.1313 10.9746 12.2614 10.9244 12.3827C10.8741 12.504 10.8005 12.6142 10.7076 12.7071C10.6147 12.8 10.5045 12.8736 10.3832 12.9239C10.2618 12.9741 10.1318 13 10.0005 13H1C0.734785 13 0.48043 12.8946 0.292893 12.7071C0.105356 12.5196 0 12.2652 0 12V1C0 0.734784 0.105357 0.48043 0.292893 0.292893ZM6.79338 1L1 1L1 12L10.0005 12V4.20711L6.79338 1Z" fill="var(--fill-0, #475067)"/>
<path fill-rule="evenodd" clip-rule="evenodd" d="M7.00049 0C7.27663 0 7.50049 0.223858 7.50049 0.5V3.5H10.501C10.7771 3.5 11.0005 3.72386 11.0005 4C11.0005 4.27614 10.7771 4.5 10.501 4.5H7.00049C6.72435 4.5 6.50049 4.27614 6.50049 4V0.5C6.50049 0.223858 6.72435 0 7.00049 0Z" fill="var(--fill-0, #475067)"/>
<path fill-rule="evenodd" clip-rule="evenodd" d="M3.00049 7C3.00049 6.72386 3.22435 6.5 3.50049 6.5H7.50049C7.77663 6.5 8.00049 6.72386 8.00049 7C8.00049 7.27614 7.77663 7.5 7.50049 7.5H3.50049C3.22435 7.5 3.00049 7.27614 3.00049 7Z" fill="var(--fill-0, #475067)"/>
<path fill-rule="evenodd" clip-rule="evenodd" d="M3.00049 9C3.00049 8.72386 3.22435 8.5 3.50049 8.5H7.50049C7.77663 8.5 8.00049 8.72386 8.00049 9C8.00049 9.27614 7.77663 9.5 7.50049 9.5H3.50049C3.22435 9.5 3.00049 9.27614 3.00049 9Z" fill="var(--fill-0, #475067)"/>
</g>
</svg>
