<svg preserveAspectRatio="none" width="100%" height="100%" overflow="visible" style="display: block;" viewBox="0 0 14 17" fill="none" xmlns="http://www.w3.org/2000/svg">
<g id="vector">
<path fill-rule="evenodd" clip-rule="evenodd" d="M0.366116 0.366117C0.600537 0.131696 0.918479 0 1.25 0H8.75061C8.91637 0 9.07534 0.065848 9.19255 0.183058L13.5676 4.55806C13.6848 4.67527 13.7506 4.83424 13.7506 5V15C13.7506 15.1641 13.7183 15.3267 13.6555 15.4784C13.5926 15.63 13.5006 15.7678 13.3845 15.8839C13.2684 16 13.1306 16.092 12.979 16.1549C12.8273 16.2177 12.6648 16.25 12.5006 16.25H1.25C0.918481 16.25 0.600538 16.1183 0.366116 15.8839C0.131695 15.6495 0 15.3315 0 15V1.25C0 0.91848 0.131696 0.600537 0.366116 0.366117ZM8.49173 1.25L1.25 1.25L1.25 15L12.5006 15V5.25888L8.49173 1.25Z" fill="var(--fill-0, #475067)"/>
<path fill-rule="evenodd" clip-rule="evenodd" d="M8.75061 0C9.09579 0 9.37561 0.279822 9.37561 0.625V4.375H13.1262C13.4714 4.375 13.7506 4.65482 13.7506 5C13.7506 5.34518 13.4714 5.625 13.1262 5.625H8.75061C8.40543 5.625 8.12561 5.34518 8.12561 5V0.625C8.12561 0.279822 8.40543 0 8.75061 0Z" fill="var(--fill-0, #475067)"/>
<path fill-rule="evenodd" clip-rule="evenodd" d="M3.75061 8.75C3.75061 8.40482 4.03043 8.125 4.37561 8.125H9.37561C9.72079 8.125 10.0006 8.40482 10.0006 8.75C10.0006 9.09518 9.72079 9.375 9.37561 9.375H4.37561C4.03043 9.375 3.75061 9.09518 3.75061 8.75Z" fill="var(--fill-0, #475067)"/>
<path fill-rule="evenodd" clip-rule="evenodd" d="M3.75061 11.25C3.75061 10.9048 4.03043 10.625 4.37561 10.625H9.37561C9.72079 10.625 10.0006 10.9048 10.0006 11.25C10.0006 11.5952 9.72079 11.875 9.37561 11.875H4.37561C4.03043 11.875 3.75061 11.5952 3.75061 11.25Z" fill="var(--fill-0, #475067)"/>
</g>
</svg>
