<svg xmlns="http://www.w3.org/2000/svg" style="display: none;">
  <!-- Logo Zenova -->
  <symbol id="zenova-logo" viewBox="0 0 173 39">
    <path d="M33.098 10.581L26.4743 17.2047L25.8295 16.938V7.57185H21.9919V16.938C21.6817 17.0673 21.6586 17.0768 21.347 17.2047L4.14374 0L1.43115 2.71259L18.6358 19.9173L18.3692 20.5621H9.003V24.3997H18.3692C18.4984 24.7099 18.5079 24.733 18.6358 25.0445L12.0122 31.6682L14.7247 34.3808L21.3484 27.7571L21.9932 28.0237V37.3899H25.8308V28.0237C26.141 27.8945 26.1641 27.885 26.4757 27.7571L33.0993 34.3808L35.8119 31.6682L29.1882 25.0445L29.4549 24.3997H38.8211V20.5621H29.4549C29.3256 20.2519 29.3161 20.2288 29.1882 19.9173L35.8119 13.2936L33.0993 10.581H33.098Z" fill="url(#paint0_linear_12835_86578)"/>
    <g clip-path="url(#clip0_12835_86578)">
      <path d="M48.6852 32.3843V28.2357L59.2277 16.9333V16.4006H48.7173V12.4805H65.4311V16.5143L54.6991 27.9315V28.4262H65.508V32.3843H48.6852Z" fill="#0033CC"/>
      <path d="M77.7608 32.9156C76.1365 32.9156 74.697 32.6814 73.4412 32.2119C72.1854 31.7424 71.1258 31.0697 70.2637 30.195C69.4005 29.3203 68.7542 28.2676 68.3226 27.0359C67.891 25.8053 67.6752 24.3911 67.6752 22.7921C67.6752 21.193 67.891 19.773 68.3226 18.4541C68.7542 17.1351 69.3879 15.9872 70.2259 15.0103C71.0627 14.0334 72.0843 13.285 73.2897 12.765C74.495 12.245 75.8587 11.9844 77.3808 11.9844C78.903 11.9844 80.1646 12.2197 81.3194 12.6881C82.473 13.1576 83.4315 13.8739 84.1926 14.8381C84.9537 15.8024 85.5242 16.9882 85.9053 18.3967C86.2853 19.8052 86.4379 21.4478 86.3622 23.3247L70.7964 23.4004V20.6225L83.5452 20.5467L81.8325 22.0689C81.9852 20.6225 81.8761 19.4367 81.5088 18.5103C81.1403 17.5839 80.595 16.8998 79.8718 16.4555C79.1486 16.0124 78.3302 15.7897 77.4176 15.7897C76.4028 15.7897 75.5086 16.0629 74.7349 16.6082C73.9612 17.1546 73.3585 17.9398 72.9269 18.9683C72.4953 19.9957 72.2795 21.2458 72.2795 22.7174C72.2795 24.9249 72.7616 26.5745 73.7259 27.665C74.6901 28.7566 76.0343 29.3019 77.7597 29.3019C78.5207 29.3019 79.1613 29.2066 79.6813 29.0161C80.2013 28.8255 80.6386 28.5661 80.9945 28.2355C81.3492 27.906 81.635 27.5376 81.8508 27.1312C82.0667 26.726 82.2377 26.3196 82.3651 25.9132H86.3679C86.3679 26.7168 86.1383 28.3239 85.5426 29.3386C85.1075 30.0802 84.5152 30.715 83.792 31.2603C83.0688 31.8067 82.2124 32.2188 81.2229 32.4977C80.2334 32.7767 79.0786 32.9167 77.7597 32.9167L77.7608 32.9156Z" fill="#0033CC"/>
      <path d="M90.1297 32.3818V20.2035L90.1676 12.478H94.2014L94.0487 18.5677H94.7719C95.1013 17.0961 95.5708 15.8655 96.1804 14.876C96.7888 13.8865 97.5567 13.1576 98.4831 12.6881C99.4095 12.2186 100.482 11.9844 101.698 11.9844C103.982 11.9844 105.72 12.7902 106.912 14.4007C108.105 16.0124 108.701 18.4793 108.701 21.8025V32.3829H103.829V22.2973C103.829 20.1415 103.505 18.562 102.859 17.5587C102.212 16.5565 101.254 16.0549 99.9857 16.0549C98.8941 16.0549 97.9815 16.3912 97.2457 17.0639C96.5098 17.7366 95.9519 18.624 95.5708 19.7283C95.1897 20.8326 94.9739 22.031 94.9234 23.3247V32.3829H90.1285L90.1297 32.3818Z" fill="#0033CC"/>
      <path d="M122.021 32.9167C120.068 32.9167 118.349 32.5103 116.865 31.6988C115.381 30.8872 114.213 29.7002 113.364 28.1402C112.513 26.5802 112.088 24.6586 112.088 22.3742C112.088 20.0898 112.52 18.1372 113.382 16.5898C114.244 15.0424 115.424 13.8876 116.921 13.1266C118.418 12.3655 120.118 11.9844 122.021 11.9844C123.925 11.9844 125.661 12.3781 127.159 13.1644C128.656 13.9508 129.836 15.1239 130.698 16.6851C131.561 18.2451 131.992 20.1805 131.992 22.489C131.992 24.7975 131.555 26.7581 130.679 28.2929C129.803 29.8288 128.61 30.9825 127.102 31.7562C125.593 32.5299 123.898 32.9167 122.021 32.9167ZM122.212 29.2261C123.277 29.2261 124.171 28.9782 124.895 28.4834C125.618 27.9887 126.183 27.2471 126.588 26.2576C126.993 25.2681 127.196 24.0881 127.196 22.7186C127.196 21.2722 126.987 20.0359 126.568 19.0085C126.149 17.9811 125.547 17.1879 124.76 16.63C123.974 16.0721 123.01 15.7932 121.868 15.7932C120.853 15.7932 119.97 16.0411 119.223 16.5359C118.474 17.0306 117.897 17.7607 117.49 18.7238C117.084 19.6881 116.882 20.8808 116.882 22.3007C116.882 24.5334 117.357 26.2461 118.309 27.4388C119.261 28.6315 120.56 29.2273 122.21 29.2273L122.212 29.2261Z" fill="#0033CC"/>
      <path d="M139.984 32.3835L133.21 12.5176H138.5L143.105 28.5403H143.676L148.28 12.5176H153.456L146.605 32.3835H139.983H139.984Z" fill="#0033CC"/>
      <path d="M172.348 32.4575H168.101L168.033 27.6271H167.463C167.107 28.5661 166.6 29.4477 165.941 30.2719C165.281 31.0961 164.476 31.7435 163.524 32.213C162.573 32.6825 161.475 32.9167 160.232 32.9167C159.14 32.9167 158.164 32.7009 157.301 32.2693C156.438 31.8388 155.766 31.1983 155.285 30.3477C154.802 29.4982 154.561 28.4639 154.561 27.246C154.561 26.206 154.752 25.3175 155.132 24.5817C155.512 23.8458 156.096 23.2432 156.882 22.7737C157.669 22.3042 158.646 21.9047 159.813 21.5753C160.979 21.2458 162.363 20.9795 163.962 20.7763C164.773 20.65 165.452 20.5226 165.998 20.3963C166.543 20.2701 166.95 20.0726 167.216 19.8063C167.482 19.54 167.616 19.1405 167.616 18.6079C167.616 17.8216 167.342 17.1431 166.797 16.5715C166.251 16.001 165.356 15.7151 164.114 15.7151C163.379 15.7151 162.688 15.8483 162.04 16.1146C161.393 16.3809 160.822 16.7804 160.327 17.313C159.833 17.8457 159.496 18.5436 159.318 19.4057L155.056 18.0741C155.31 17.1098 155.704 16.2478 156.236 15.4867C156.769 14.7256 157.422 14.0782 158.196 13.5455C158.969 13.0129 159.876 12.6192 160.916 12.3655C161.956 12.1118 163.061 11.9844 164.227 11.9844C166.078 11.9844 167.608 12.2886 168.813 12.8981C170.018 13.5065 170.907 14.4329 171.477 15.6761C172.048 16.9193 172.334 18.5298 172.334 20.5088V24.2384M162.134 29.3398C162.642 29.3398 163.155 29.2514 163.676 29.0735C164.196 28.8967 164.709 28.6361 165.218 28.2929C165.725 27.9508 166.194 27.5123 166.626 26.9797C167.057 26.447 167.425 25.826 167.729 25.1154L167.653 21.69L168.605 21.9185C168.148 22.2479 167.609 22.5085 166.988 22.6991C166.365 22.8896 165.707 23.048 165.009 23.1743C164.311 23.3017 163.613 23.428 162.916 23.5554C162.218 23.6828 161.59 23.8539 161.032 24.0697C160.474 24.2855 160.03 24.5897 159.701 24.9834C159.371 25.3772 159.206 25.9155 159.206 26.6009C159.206 27.4641 159.478 28.1356 160.024 28.6177C160.57 29.0999 161.273 29.3409 162.137 29.3409L162.134 29.3398Z" fill="#0033CC"/>
    </g>
    <defs>
      <linearGradient id="paint0_linear_12835_86578" x1="34.4018" y1="32.9706" x2="1.43116" y2="-2.02613" gradientUnits="userSpaceOnUse">
        <stop stop-color="#0033CC"/>
        <stop offset="0.33" stop-color="#0033CC"/>
        <stop offset="0.897316" stop-color="#0033CC" stop-opacity="0"/>
      </linearGradient>
      <clipPath id="clip0_12835_86578">
        <rect width="123.663" height="20.9312" fill="white" transform="translate(48.6852 11.9844)"/>
      </clipPath>
    </defs>
  </symbol>

  <!-- Icono de Obras -->
  <symbol id="obras" viewBox="0 0 20 18">
    <path d="M16.75 0C17.164 0.000232866 17.5 0.33593 17.5 0.75V2H18.75C18.7947 2.00002 18.8384 2.00421 18.8809 2.01172C18.8864 2.0127 18.8919 2.01355 18.8975 2.01465C18.9101 2.01718 18.9221 2.02223 18.9346 2.02539C18.9688 2.0341 19.0032 2.04303 19.0361 2.05664C19.087 2.07769 19.1342 2.10551 19.1787 2.13672C19.2139 2.16143 19.2488 2.18825 19.2803 2.21973C19.3362 2.27572 19.3776 2.34049 19.4121 2.40723C19.4218 2.42584 19.4333 2.44341 19.4414 2.46289C19.4489 2.48097 19.453 2.50006 19.459 2.51855C19.4829 2.5918 19.5 2.66878 19.5 2.75V8.75C19.5 9.16407 19.164 9.49978 18.75 9.5H17.5V16.75C17.5 17.1641 17.164 17.4998 16.75 17.5C16.3358 17.5 16 17.1642 16 16.75V9.5H3.5V16.75C3.5 17.1641 3.16401 17.4998 2.75 17.5C2.33579 17.5 2 17.1642 2 16.75V9.5H0.75C0.335786 9.5 0 9.16421 0 8.75V2.75C3.30018e-05 2.33581 0.335807 2 0.75 2H2V0.75C2 0.335786 2.33579 0 2.75 0C3.16401 0.000241234 3.5 0.335935 3.5 0.75V2H16V0.75C16 0.335786 16.3358 0 16.75 0ZM2.21777 8H6.43848L10.9385 3.5H6.7168L2.21777 8ZM8.56055 8H12.4385L16.9385 3.5H13.0605L8.56055 8ZM14.5605 8H18V4.56055L14.5605 8ZM1.5 6.5957L4.5957 3.5H1.5V6.5957Z" fill="currentColor"/>
  </symbol>

  <!-- Icono de Services (paperclip) -->
  <symbol id="services" viewBox="0 0 12 13">
    <path fill-rule="evenodd" clip-rule="evenodd" d="M8.04293 0.190301C8.34624 0.0646644 8.67133 2.98024e-08 8.99963 0C9.32794 -5.96046e-08 9.65303 0.0646645 9.95634 0.190301C10.2597 0.315938 10.5353 0.500087 10.7674 0.732233C10.9995 0.964379 11.1837 1.23998 11.3093 1.54329C11.435 1.84661 11.4996 2.1717 11.4996 2.5C11.4996 2.8283 11.435 3.15339 11.3093 3.45671C11.1839 3.75947 11.0002 4.03461 10.7687 4.2665C10.7682 4.26692 10.7678 4.26734 10.7674 4.26777L4.56067 10.561C4.27937 10.8423 3.89783 11.0003 3.5 11.0003C3.10218 11.0003 2.72064 10.8423 2.43934 10.561C2.15804 10.2797 2 9.89813 2 9.50031C2 9.10324 2.15744 8.7224 2.43774 8.44125L7.64318 3.14937C7.83683 2.95251 8.1534 2.9499 8.35026 3.14355C8.54713 3.3372 8.54973 3.65377 8.35609 3.85063L3.14646 9.14676C3.05269 9.24053 3 9.3677 3 9.50031C3 9.63291 3.05268 9.76009 3.14645 9.85386C3.24022 9.94763 3.36739 10.0003 3.5 10.0003C3.63213 10.0003 3.75887 9.94801 3.85254 9.85487C3.85288 9.85453 3.85322 9.8542 3.85355 9.85386L10.0603 3.56065C10.1996 3.42136 10.3101 3.25601 10.3855 3.07403C10.4608 2.89204 10.4996 2.69698 10.4996 2.5C10.4996 2.30302 10.4608 2.10796 10.3855 1.92597C10.3101 1.74399 10.1996 1.57863 10.0603 1.43934C9.92101 1.30005 9.75565 1.18956 9.57366 1.11418C9.39167 1.0388 9.19662 1 8.99963 1C8.80265 1 8.6076 1.0388 8.42561 1.11418C8.24412 1.18936 8.07917 1.29944 7.94012 1.43819L1.73224 7.73255C1.2634 8.20139 1 8.83726 1 9.50031C1 10.1633 1.26339 10.7992 1.73223 11.2681C2.20107 11.7369 2.83696 12.0003 3.5 12.0003C4.16304 12.0003 4.79893 11.7369 5.26777 11.2681L10.3963 6.14622C10.5917 5.95108 10.9083 5.95129 11.1034 6.14668C11.2986 6.34207 11.2983 6.65865 11.103 6.85379L5.97487 11.9752C5.3185 12.6316 4.42826 13.0003 3.5 13.0003C2.57174 13.0003 1.6815 12.6316 1.02513 11.9752C0.368749 11.3188 0 10.4286 0 9.50031C0 8.57265 0.368274 7.68296 1.02386 7.0267L7.23186 0.732225C7.46401 0.500078 7.73961 0.315938 8.04293 0.190301Z" fill="currentColor"/>
  </symbol>

  <!-- Icono de Info -->
  <symbol id="info" viewBox="0 0 13 13">
    <path fill-rule="evenodd" clip-rule="evenodd" d="M6.5 1C3.46243 1 1 3.46243 1 6.5C1 9.53757 3.46243 12 6.5 12C9.53757 12 12 9.53757 12 6.5C12 3.46243 9.53757 1 6.5 1ZM0 6.5C0 2.91015 2.91015 0 6.5 0C10.0899 0 13 2.91015 13 6.5C13 10.0899 10.0899 13 6.5 13C2.91015 13 0 10.0899 0 6.5Z" fill="currentColor"/>
    <path fill-rule="evenodd" clip-rule="evenodd" d="M6.5 3C6.77614 3 7 3.22386 7 3.5V7C7 7.27614 6.77614 7.5 6.5 7.5C6.22386 7.5 6 7.27614 6 7V3.5C6 3.22386 6.22386 3 6.5 3Z" fill="currentColor"/>
    <path d="M6.5 10C6.91421 10 7.25 9.66421 7.25 9.25C7.25 8.83579 6.91421 8.5 6.5 8.5C6.08579 8.5 5.75 8.83579 5.75 9.25C5.75 9.66421 6.08579 10 6.5 10Z" fill="currentColor"/>
  </symbol>

  <!-- Icono de Cerrar sesión -->
  <symbol id="logout" viewBox="0 0 20 20">
    <path d="M3.75 2.5C3.41848 2.5 3.10054 2.6317 2.86612 2.86612C2.6317 3.10054 2.5 3.41848 2.5 3.75V16.25C2.5 16.5815 2.6317 16.8995 2.86612 17.1339C3.10054 17.3683 3.41848 17.5 3.75 17.5H8.125C8.47018 17.5 8.75 17.2202 8.75 16.875C8.75 16.5298 8.47018 16.25 8.125 16.25H3.75V3.75H8.125C8.47018 3.75 8.75 3.47018 8.75 3.125C8.75 2.77982 8.47018 2.5 8.125 2.5H3.75Z" fill="currentColor"/>
    <path d="M13.1528 6.27675C13.3969 6.0327 13.7926 6.03276 14.0367 6.27687L17.3171 9.55812C17.5611 9.80218 17.5611 10.1978 17.3171 10.4419L14.0367 13.7231C13.7926 13.9672 13.3969 13.9673 13.1528 13.7232C12.9087 13.4792 12.9086 13.0835 13.1527 12.8394L15.3665 10.625H8.125C7.77982 10.625 7.5 10.3452 7.5 10C7.5 9.65482 7.77982 9.375 8.125 9.375H15.3665L13.1527 7.16063C12.9086 6.91652 12.9087 6.5208 13.1528 6.27675Z" fill="currentColor"/>
  </symbol>

  <!-- Icono de Usuario/Inmobiliaria -->
  <symbol id="user" viewBox="0 0 20 20">
    <path fill-rule="evenodd" clip-rule="evenodd" d="M12.885 12.3298C14.5263 11.3473 15.625 9.55196 15.625 7.5C15.625 4.3934 13.1066 1.875 10 1.875C6.8934 1.875 4.375 4.3934 4.375 7.5C4.375 9.55197 5.47375 11.3473 7.115 12.3298C6.49017 12.5318 5.88575 12.7997 5.3123 13.1307C3.88694 13.9534 2.70316 15.1366 1.87989 16.5616C1.70721 16.8605 1.80952 17.2428 2.10841 17.4154C2.40729 17.5881 2.78956 17.4858 2.96224 17.1869C3.67578 15.9519 4.70177 14.9263 5.93714 14.2133C7.17248 13.5004 8.57368 13.125 10 13.125C10 13.125 9.99996 13.125 10 13.125C11.4264 13.125 12.8277 13.5004 14.0631 14.2134C15.2985 14.9264 16.3244 15.952 17.0379 17.1871C17.2106 17.486 17.5929 17.5883 17.8918 17.4156C18.1907 17.2429 18.293 16.8607 18.1203 16.5618C17.2971 15.1368 16.1133 13.9535 14.688 13.1308C14.1144 12.7998 13.5099 12.5318 12.885 12.3298ZM5.625 7.5C5.625 5.08375 7.58375 3.125 10 3.125C12.4162 3.125 14.375 5.08375 14.375 7.5C14.375 9.91622 12.4163 11.875 10.0001 11.875C10 11.875 10.0001 11.875 10.0001 11.875C7.58383 11.875 5.625 9.91625 5.625 7.5Z" fill="currentColor"/>
  </symbol>

  <!-- Icono de Plus -->
  <symbol id="plus" viewBox="0 0 20 20">
    <path d="M10.625 3.125C10.625 2.77982 10.3452 2.5 10 2.5C9.65482 2.5 9.375 2.77982 9.375 3.125V9.375H3.125C2.77982 9.375 2.5 9.65482 2.5 10C2.5 10.3452 2.77982 10.625 3.125 10.625H9.375V16.875C9.375 17.2202 9.65482 17.5 10 17.5C10.3452 17.5 10.625 17.2202 10.625 16.875V10.625H16.875C17.2202 10.625 17.5 10.3452 17.5 10C17.5 9.65482 17.2202 9.375 16.875 9.375H10.625V3.125Z" fill="currentColor"/>
  </symbol>

  <!-- Icono de Search -->
  <symbol id="search" viewBox="0 0 24 24">
    <path fill-rule="evenodd" clip-rule="evenodd" d="M10.875 2.1C6.02871 2.1 2.10001 6.0287 2.10001 10.875C2.10001 15.7213 6.02871 19.65 10.875 19.65C12.9737 19.65 14.9006 18.9131 16.4106 17.684L20.3632 21.6365C20.7146 21.988 21.2845 21.988 21.6359 21.6365C21.9874 21.285 21.9874 20.7152 21.6359 20.3637L17.6835 16.4112C18.9129 14.9012 19.65 12.974 19.65 10.875C19.65 6.0287 15.7213 2.1 10.875 2.1ZM3.90001 10.875C3.90001 7.02281 7.02282 3.9 10.875 3.9C14.7272 3.9 17.85 7.02281 17.85 10.875C17.85 14.7272 14.7272 17.85 10.875 17.85C7.02282 17.85 3.90001 14.7272 3.90001 10.875Z" fill="currentColor"/>
  </symbol>

  <!-- Icono de CaretDown -->
  <symbol id="caret-down" viewBox="0 0 16 16">
    <path fill-rule="evenodd" clip-rule="evenodd" d="M2.64645 5.64645C2.84171 5.45118 3.15829 5.45118 3.35355 5.64645L8 10.2929L12.6464 5.64645C12.8417 5.45118 13.1583 5.45118 13.3536 5.64645C13.5488 5.84171 13.5488 6.15829 13.3536 6.35355L8.35355 11.3536C8.15829 11.5488 7.84171 11.5488 7.64645 11.3536L2.64645 6.35355C2.45118 6.15829 2.45118 5.84171 2.64645 5.64645Z" fill="currentColor"/>
  </symbol>

  <!-- Icono de Buildings (de Figma) -->
  <symbol id="buildings" viewBox="0 0 23 19">
    <path fill-rule="evenodd" clip-rule="evenodd" d="M0 18C0 17.5858 0.335786 17.25 0.75 17.25H21.75C22.1642 17.25 22.5 17.5858 22.5 18C22.5 18.4142 22.1642 18.75 21.75 18.75H0.75C0.335786 18.75 0 18.4142 0 18Z" fill="currentColor"/>
    <path fill-rule="evenodd" clip-rule="evenodd" d="M1.93885 0.43934C2.22016 0.158035 2.60169 0 2.99951 0H11.9995C12.3973 0 12.7789 0.158035 13.0602 0.43934C13.3415 0.720645 13.4995 1.10218 13.4995 1.5V18C13.4995 18.4142 13.1637 18.75 12.7495 18.75C12.3353 18.75 11.9995 18.4142 11.9995 18V1.5H2.99951L2.99951 18C2.99951 18.4142 2.66373 18.75 2.24951 18.75C1.8353 18.75 1.49951 18.4142 1.49951 18V1.5C1.49951 1.10218 1.65755 0.720645 1.93885 0.43934Z" fill="currentColor"/>
    <path fill-rule="evenodd" clip-rule="evenodd" d="M11.9995 6.75C11.9995 6.33579 12.3353 6 12.7495 6H19.4995C19.8973 6 20.2789 6.15804 20.5602 6.43934C20.8415 6.72065 20.9995 7.10218 20.9995 7.5V18C20.9995 18.4142 20.6637 18.75 20.2495 18.75C19.8353 18.75 19.4995 18.4142 19.4995 18V7.5H12.7495C12.3353 7.5 11.9995 7.16421 11.9995 6.75Z" fill="currentColor"/>
    <path fill-rule="evenodd" clip-rule="evenodd" d="M4.49951 4.5C4.49951 4.08579 4.8353 3.75 5.24951 3.75H8.24951C8.66373 3.75 8.99951 4.08579 8.99951 4.5C8.99951 4.91421 8.66373 5.25 8.24951 5.25H5.24951C4.8353 5.25 4.49951 4.91421 4.49951 4.5Z" fill="currentColor"/>
    <path fill-rule="evenodd" clip-rule="evenodd" d="M5.99951 10.5C5.99951 10.0858 6.3353 9.75 6.74951 9.75H9.74951C10.1637 9.75 10.4995 10.0858 10.4995 10.5C10.4995 10.9142 10.1637 11.25 9.74951 11.25H6.74951C6.3353 11.25 5.99951 10.9142 5.99951 10.5Z" fill="currentColor"/>
    <path fill-rule="evenodd" clip-rule="evenodd" d="M4.49951 14.25C4.49951 13.8358 4.8353 13.5 5.24951 13.5H8.24951C8.66373 13.5 8.99951 13.8358 8.99951 14.25C8.99951 14.6642 8.66373 15 8.24951 15H5.24951C4.8353 15 4.49951 14.6642 4.49951 14.25Z" fill="currentColor"/>
    <path fill-rule="evenodd" clip-rule="evenodd" d="M14.9995 14.25C14.9995 13.8358 15.3353 13.5 15.7495 13.5H17.2495C17.6637 13.5 17.9995 13.8358 17.9995 14.25C17.9995 14.6642 17.6637 15 17.2495 15H15.7495C15.3353 15 14.9995 14.6642 14.9995 14.25Z" fill="currentColor"/>
    <path fill-rule="evenodd" clip-rule="evenodd" d="M14.9995 10.5C14.9995 10.0858 15.3353 9.75 15.7495 9.75H17.2495C17.6637 9.75 17.9995 10.0858 17.9995 10.5C17.9995 10.9142 17.6637 11.25 17.2495 11.25H15.7495C15.3353 11.25 14.9995 10.9142 14.9995 10.5Z" fill="currentColor"/>
  </symbol>

  <!-- Icono de Chevron Right/Down (de Figma) -->
  <symbol id="chevron-table" viewBox="0 0 20 20">
    <path fill-rule="evenodd" clip-rule="evenodd" d="M3.30806 7.05806C3.55214 6.81398 3.94786 6.81398 4.19194 7.05806L10 12.8661L15.8081 7.05806C16.0521 6.81398 16.4479 6.81398 16.6919 7.05806C16.936 7.30214 16.936 7.69786 16.6919 7.94194L10.4419 14.1919C10.1979 14.436 9.80214 14.436 9.55806 14.1919L3.30806 7.94194C3.06398 7.69786 3.06398 7.30214 3.30806 7.05806Z" fill="currentColor"/>
  </symbol>

  <!-- Icono de Document (de Figma) -->
  <symbol id="document" viewBox="0 0 11 13">
    <path fill-rule="evenodd" clip-rule="evenodd" d="M0.292893 0.292893C0.480429 0.105357 0.734783 0 1 0H7.00049C7.1331 0 7.26027 0.0526784 7.35404 0.146447L10.854 3.64645C10.9478 3.74022 11.0005 3.86739 11.0005 4V12C11.0005 12.1313 10.9746 12.2614 10.9244 12.3827C10.8741 12.504 10.8005 12.6142 10.7076 12.7071C10.6147 12.8 10.5045 12.8736 10.3832 12.9239C10.2618 12.9741 10.1318 13 10.0005 13H1C0.734785 13 0.48043 12.8946 0.292893 12.7071C0.105356 12.5196 0 12.2652 0 12V1C0 0.734784 0.105357 0.48043 0.292893 0.292893ZM6.79338 1L1 1L1 12L10.0005 12V4.20711L6.79338 1Z" fill="currentColor"/>
    <path fill-rule="evenodd" clip-rule="evenodd" d="M7.00049 0C7.27663 0 7.50049 0.223858 7.50049 0.5V3.5H10.501C10.7771 3.5 11.0005 3.72386 11.0005 4C11.0005 4.27614 10.7771 4.5 10.501 4.5H7.00049C6.72435 4.5 6.50049 4.27614 6.50049 4V0.5C6.50049 0.223858 6.72435 0 7.00049 0Z" fill="currentColor"/>
    <path fill-rule="evenodd" clip-rule="evenodd" d="M3.00049 7C3.00049 6.72386 3.22435 6.5 3.50049 6.5H7.50049C7.77663 6.5 8.00049 6.72386 8.00049 7C8.00049 7.27614 7.77663 7.5 7.50049 7.5H3.50049C3.22435 7.5 3.00049 7.27614 3.00049 7Z" fill="currentColor"/>
    <path fill-rule="evenodd" clip-rule="evenodd" d="M3.00049 9C3.00049 8.72386 3.22435 8.5 3.50049 8.5H7.50049C7.77663 8.5 8.00049 8.72386 8.00049 9C8.00049 9.27614 7.77663 9.5 7.50049 9.5H3.50049C3.22435 9.5 3.00049 9.27614 3.00049 9Z" fill="currentColor"/>
  </symbol>

  <!-- Icono de Pencil/Edit -->
  <symbol id="pencil" viewBox="0 0 16 16">
    <path d="M10.5 1.70703C10.7652 1.70703 11.0195 1.81246 11.207 2L14 4.79297C14.1875 4.9805 14.293 5.23482 14.293 5.5C14.2929 5.76519 14.1875 6.01951 14 6.20703L6.5 13.707C6.40719 13.7998 6.29704 13.8736 6.17578 13.9238C6.17081 13.9259 6.16516 13.9267 6.16016 13.9287C6.15444 13.9311 6.14836 13.9324 6.14258 13.9346C6.03062 13.9765 5.91269 14 5.79297 14H3C2.7348 14 2.4805 13.8945 2.29297 13.707C2.10545 13.5195 2.00002 13.2652 2 13V10.207C2 10.0871 2.02243 9.96857 2.06445 9.85645C2.066 9.85231 2.0667 9.84785 2.06836 9.84375L2.07617 9.82422C2.12643 9.70294 2.20014 9.59283 2.29297 9.5L9.79297 2C9.98051 1.81246 10.2348 1.70703 10.5 1.70703ZM3 13H4.79297L3 11.207V13ZM3.20703 9.99902L6 12.792L11.293 7.5L8.5 4.70703L3.20703 9.99902ZM9.20703 4L12 6.79297L13.293 5.5L10.5 2.70703L9.20703 4Z" fill="currentColor"/>
  </symbol>

  <!-- Icono de ChatDots -->
  <symbol id="chat-dots" viewBox="0 0 16 16">
    <path d="M4.83443 12.6173L2.82174 14.3092C2.74886 14.3705 2.65999 14.4097 2.5656 14.4222C2.47121 14.4347 2.37521 14.4199 2.2889 14.3797C2.20258 14.3395 2.12954 14.2755 2.07836 14.1952C2.02719 14.1149 2 14.0217 2 13.9265V4C2 3.86739 2.05268 3.74021 2.14645 3.64645C2.24021 3.55268 2.36739 3.5 2.5 3.5H13.5C13.6326 3.5 13.7598 3.55268 13.8536 3.64645C13.9473 3.74021 14 3.86739 14 4V12C14 12.1326 13.9473 12.2598 13.8536 12.3536C13.7598 12.4473 13.6326 12.5 13.5 12.5H5.15617C5.03847 12.5 4.92453 12.5415 4.83443 12.6173Z" stroke="currentColor" stroke-linecap="round" stroke-linejoin="round" fill="none"/>
    <path d="M8 8.75C8.41421 8.75 8.75 8.41421 8.75 8C8.75 7.58579 8.41421 7.25 8 7.25C7.58579 7.25 7.25 7.58579 7.25 8C7.25 8.41421 7.58579 8.75 8 8.75Z" fill="currentColor"/>
    <path d="M5 8.75C5.41421 8.75 5.75 8.41421 5.75 8C5.75 7.58579 5.41421 7.25 5 7.25C4.58579 7.25 4.25 7.58579 4.25 8C4.25 8.41421 4.58579 8.75 5 8.75Z" fill="currentColor"/>
    <path d="M11 8.75C11.4142 8.75 11.75 8.41421 11.75 8C11.75 7.58579 11.4142 7.25 11 7.25C10.5858 7.25 10.25 7.58579 10.25 8C10.25 8.41421 10.5858 8.75 11 8.75Z" fill="currentColor"/>
  </symbol>

  <!-- Icono de Arrow Small (flecha pequeña) -->
  <symbol id="arrow-small" viewBox="0 0 16 16">
    <path fill-rule="evenodd" clip-rule="evenodd" d="M5.64645 2.64645C5.84171 2.45118 6.15829 2.45118 6.35355 2.64645L11.3536 7.64645C11.5488 7.84171 11.5488 8.15829 11.3536 8.35355L6.35355 13.3536C6.15829 13.5488 5.84171 13.5488 5.64645 13.3536C5.45118 13.1583 5.45118 12.8417 5.64645 12.6464L10.2929 8L5.64645 3.35355C5.45118 3.15829 5.45118 2.84171 5.64645 2.64645Z" fill="currentColor"/>
  </symbol>

  <!-- Icono de Arrow Down (para Leer más) -->
  <symbol id="arrow-down" viewBox="0 0 16 16">
    <path fill-rule="evenodd" clip-rule="evenodd" d="M2.64645 5.64645C2.84171 5.45118 3.15829 5.45118 3.35355 5.64645L8 10.2929L12.6464 5.64645C12.8417 5.45118 13.1583 5.45118 13.3536 5.64645C13.5488 5.84171 13.5488 6.15829 13.3536 6.35355L8.35355 11.3536C8.15829 11.5488 7.84171 11.5488 7.64645 11.3536L2.64645 6.35355C2.45118 6.15829 2.45118 5.84171 2.64645 5.64645Z" fill="currentColor"/>
  </symbol>

  <!-- Icono de Arrow Up (para Leer menos) -->
  <symbol id="arrow-up" viewBox="0 0 16 16">
    <path fill-rule="evenodd" clip-rule="evenodd" d="M13.3536 10.3536C13.1583 10.5488 12.8417 10.5488 12.6464 10.3536L8 5.70711L3.35355 10.3536C3.15829 10.5488 2.84171 10.5488 2.64645 10.3536C2.45118 10.1583 2.45118 9.84171 2.64645 9.64645L7.64645 4.64645C7.84171 4.45118 8.15829 4.45118 8.35355 4.64645L13.3536 9.64645C13.5488 9.84171 13.5488 10.1583 13.3536 10.3536Z" fill="currentColor"/>
  </symbol>

  <!-- Icono de X Close (cerrar modal) -->
  <symbol id="x-close" viewBox="0 0 16 16">
    <path fill-rule="evenodd" clip-rule="evenodd" d="M3.64645 3.64645C3.84171 3.45118 4.15829 3.45118 4.35355 3.64645L8 7.29289L11.6464 3.64645C11.8417 3.45118 12.1583 3.45118 12.3536 3.64645C12.5488 3.84171 12.5488 4.15829 12.3536 4.35355L8.70711 8L12.3536 11.6464C12.5488 11.8417 12.5488 12.1583 12.3536 12.3536C12.1583 12.5488 11.8417 12.5488 11.6464 12.3536L8 8.70711L4.35355 12.3536C4.15829 12.5488 3.84171 12.5488 3.64645 12.3536C3.45118 12.1583 3.45118 11.8417 3.64645 11.6464L7.29289 8L3.64645 4.35355C3.45118 4.15829 3.45118 3.84171 3.64645 3.64645Z" fill="currentColor"/>
  </symbol>

  <!-- Icono de Paperclip (adjuntar archivo) -->
  <symbol id="paperclip" viewBox="0 0 12 13">
    <path fill-rule="evenodd" clip-rule="evenodd" d="M8.04293 0.190301C8.34624 0.0646644 8.67133 2.98024e-08 8.99963 0C9.32794 -5.96046e-08 9.65303 0.0646645 9.95634 0.190301C10.2597 0.315938 10.5353 0.500087 10.7674 0.732233C10.9995 0.964379 11.1837 1.23998 11.3093 1.54329C11.435 1.84661 11.4996 2.1717 11.4996 2.5C11.4996 2.8283 11.435 3.15339 11.3093 3.45671C11.1839 3.75947 11.0002 4.03461 10.7687 4.2665C10.7682 4.26692 10.7678 4.26734 10.7674 4.26777L4.56067 10.561C4.27937 10.8423 3.89783 11.0003 3.5 11.0003C3.10218 11.0003 2.72064 10.8423 2.43934 10.561C2.15804 10.2797 2 9.89813 2 9.50031C2 9.10324 2.15744 8.7224 2.43774 8.44125L7.64318 3.14937C7.83683 2.95251 8.1534 2.9499 8.35026 3.14355C8.54713 3.3372 8.54973 3.65377 8.35609 3.85063L3.14646 9.14676C3.05269 9.24053 3 9.3677 3 9.50031C3 9.63291 3.05268 9.76009 3.14645 9.85386C3.24022 9.94763 3.36739 10.0003 3.5 10.0003C3.63213 10.0003 3.75887 9.94801 3.85254 9.85487C3.85288 9.85453 3.85322 9.8542 3.85355 9.85386L10.0603 3.56065C10.1996 3.42136 10.3101 3.25601 10.3855 3.07403C10.4608 2.89204 10.4996 2.69698 10.4996 2.5C10.4996 2.30302 10.4608 2.10796 10.3855 1.92597C10.3101 1.74399 10.1996 1.57863 10.0603 1.43934C9.92101 1.30005 9.75565 1.18956 9.57366 1.11418C9.39167 1.0388 9.19662 1 8.99963 1C8.80265 1 8.6076 1.0388 8.42561 1.11418C8.24412 1.18936 8.07917 1.29944 7.94012 1.43819L1.73224 7.73255C1.2634 8.20139 1 8.83726 1 9.50031C1 10.1633 1.26339 10.7992 1.73223 11.2681C2.20107 11.7369 2.83696 12.0003 3.5 12.0003C4.16304 12.0003 4.79893 11.7369 5.26777 11.2681L10.3963 6.14622C10.5917 5.95108 10.9083 5.95129 11.1034 6.14668C11.2986 6.34207 11.2983 6.65865 11.103 6.85379L5.97487 11.9752C5.3185 12.6316 4.42826 13.0003 3.5 13.0003C2.57174 13.0003 1.6815 12.6316 1.02513 11.9752C0.368749 11.3188 0 10.4286 0 9.50031C0 8.57265 0.368274 7.68296 1.02386 7.0267L7.23186 0.732225C7.46401 0.500078 7.73961 0.315938 8.04293 0.190301Z" fill="currentColor"/>
  </symbol>

  <!-- Icono de wrench (para botón resolver incidencia) -->
  <symbol id="wrench" viewBox="0 0 24 24">
   <path fill-rule="evenodd" clip-rule="evenodd" d="M16.026 3.87256C15.3291 3.74797 14.6105 3.76126 13.9117 3.91621C12.8179 4.15874 11.827 4.73623 11.0768 5.56832C10.3266 6.40041 9.85455 7.44568 9.72626 8.55864C9.59855 9.66659 9.81788 10.7867 10.3538 11.7646C10.5374 12.0819 10.4716 12.4886 10.1905 12.7315L3.97063 18.104C3.69355 18.3907 3.53836 18.7741 3.53847 19.1735C3.53859 19.5814 3.70067 19.9725 3.98908 20.2609C4.27749 20.5493 4.66863 20.7114 5.0765 20.7115C5.47589 20.7116 5.85932 20.5565 6.14604 20.2794L11.5186 14.0594C11.7629 13.7766 12.1721 13.7125 12.489 13.8982C13.466 14.4327 14.5848 14.6513 15.6914 14.5237C16.8043 14.3954 17.8496 13.9234 18.6817 13.1732C19.5138 12.423 20.0913 11.4321 20.3338 10.3383C20.4887 9.63947 20.502 8.92089 20.3774 8.22401L17.2518 11.3497C17.0699 11.5315 16.8092 11.6105 16.557 11.56L13.8374 11.0161C13.5328 10.9552 13.2948 10.7172 13.2339 10.4126L12.69 7.69299C12.6395 7.44079 12.7185 7.18006 12.9003 6.9982L16.026 3.87256ZM12.2942 15.5151C13.4134 16.0056 14.6462 16.1929 15.8675 16.0521C17.2983 15.8872 18.6421 15.2802 19.7119 14.3158C20.7816 13.3514 21.524 12.0775 21.8358 10.6713C22.1476 9.26521 22.0132 7.79686 21.4514 6.47067C21.3718 6.2828 21.2208 6.13425 21.0317 6.0577C20.8426 5.98114 20.6308 5.98286 20.4429 6.06247L20.4425 6.06264C20.3515 6.10123 20.2687 6.15703 20.1988 6.22697L16.455 9.97068L14.6419 9.60806L14.2793 7.79496L18.023 4.05124C18.092 3.98231 18.1472 3.90091 18.1857 3.81136L18.1859 3.81097C18.2668 3.62288 18.2694 3.41028 18.1931 3.22026C18.1168 3.03024 17.9679 2.87849 17.7793 2.79862C16.4531 2.2368 14.9848 2.10244 13.5787 2.41422C12.1725 2.72601 10.8986 3.46843 9.93418 4.53815C8.96976 5.60787 8.36284 6.95166 8.19791 8.38246C8.05713 9.60379 8.24437 10.8366 8.73493 11.9558L2.94139 16.9601C2.92712 16.9724 2.9133 16.9852 2.89998 16.9986C2.32348 17.5757 1.99977 18.3582 2 19.1739C2.00023 19.9897 2.32439 20.772 2.90122 21.3488C3.47804 21.9256 4.26031 22.2498 5.07607 22.25C5.89182 22.2502 6.67428 21.9265 7.25143 21.35C7.26477 21.3367 7.27762 21.3229 7.28995 21.3086L12.2942 15.5151Z" fill="currentColor"/>
  </symbol>

  <!-- Icono de Alert Triangle (para confirmación cancelar) -->
  <symbol id="alert-triangle" viewBox="0 0 24 24">
    <path fill-rule="evenodd" clip-rule="evenodd" d="M10.2927 4.29289C11.0678 3.05132 12.9322 3.05132 13.7073 4.29289L21.7073 17.2929C22.4824 18.5345 21.5746 20.1429 20.0246 20.1429H3.97537C2.42537 20.1429 1.51758 18.5345 2.29268 17.2929L10.2927 4.29289ZM11.9 8.14286C11.4582 8.14286 11.1 8.50107 11.1 8.94286V13.0143C11.1 13.4561 11.4582 13.8143 11.9 13.8143H12.1C12.5418 13.8143 12.9 13.4561 12.9 13.0143V8.94286C12.9 8.50107 12.5418 8.14286 12.1 8.14286H11.9ZM12 17.1429C12.663 17.1429 13.2 16.6059 13.2 15.9429C13.2 15.2798 12.663 14.7429 12 14.7429C11.337 14.7429 10.8 15.2798 10.8 15.9429C10.8 16.6059 11.337 17.1429 12 17.1429Z" fill="currentColor"/>
  </symbol>

  <!-- Icono de Plus (para botón subir documentos) -->
  <symbol id="plus-blue" viewBox="0 0 20 20">
    <path d="M10.625 3.125C10.625 2.77982 10.3452 2.5 10 2.5C9.65482 2.5 9.375 2.77982 9.375 3.125V9.375H3.125C2.77982 9.375 2.5 9.65482 2.5 10C2.5 10.3452 2.77982 10.625 3.125 10.625H9.375V16.875C9.375 17.2202 9.65482 17.5 10 17.5C10.3452 17.5 10.625 17.2202 10.625 16.875V10.625H16.875C17.2202 10.625 17.5 10.3452 17.5 10C17.5 9.65482 17.2202 9.375 16.875 9.375H10.625V3.125Z" fill="currentColor"/>
  </symbol>

  <!-- Icono de checkCircle -->
  <symbol id="check-circle" viewBox="0 0 16 16">
   <path fill-rule="evenodd" clip-rule="evenodd" d="M11.1117 6.15476C11.3023 6.35451 11.295 6.67101 11.0952 6.86168L7.42855 10.3617C7.23534 10.5461 6.93128 10.5461 6.73807 10.3617L4.90476 8.61168C4.70501 8.42101 4.69765 8.10451 4.88832 7.90476C5.079 7.70501 5.39549 7.69765 5.59524 7.88832L7.08332 9.30878L10.4048 6.13832C10.6045 5.94765 10.921 5.95501 11.1117 6.15476Z" fill="currentColor"/>
    <path fill-rule="evenodd" clip-rule="evenodd" d="M8 2.5C4.96243 2.5 2.5 4.96243 2.5 8C2.5 11.0376 4.96243 13.5 8 13.5C11.0376 13.5 13.5 11.0376 13.5 8C13.5 4.96243 11.0376 2.5 8 2.5ZM1.5 8C1.5 4.41015 4.41015 1.5 8 1.5C11.5899 1.5 14.5 4.41015 14.5 8C14.5 11.5899 11.5899 14.5 8 14.5C4.41015 14.5 1.5 11.5899 1.5 8Z" fill="currentColor"/>
  </symbol>

  <!-- Icono de rayo -->
  <symbol id="lightning" viewBox="0 0 16 16">
   <path fill-rule="evenodd" clip-rule="evenodd" d="M10.2283 0.55518C10.4272 0.65724 10.5341 0.878893 10.4903 1.09808L9.57368 5.68115L13.1756 7.03185C13.3319 7.09047 13.4486 7.22324 13.4868 7.38576C13.5249 7.54829 13.4794 7.71913 13.3655 7.84118L6.36554 15.3412C6.21302 15.5046 5.97058 15.5469 5.77171 15.4449C5.57285 15.3428 5.46588 15.1211 5.50972 14.902L6.42633 10.3189L2.82445 8.96818C2.66813 8.90956 2.55139 8.7768 2.51324 8.61427C2.47509 8.45175 2.52057 8.2809 2.63448 8.15886L9.63448 0.658859C9.787 0.49545 10.0294 0.453121 10.2283 0.55518ZM3.87582 8.29445L7.17557 9.53185C7.4051 9.61792 7.53837 9.8577 7.4903 10.0981L6.8355 13.372L12.1242 7.70559L8.82445 6.46818C8.59492 6.38211 8.46164 6.14233 8.50972 5.90196L9.16451 2.62799L3.87582 8.29445Z" fill="currentColor"/>
  </symbol>

  <!-- Icono de maletin -->
  <symbol id="briefcase" viewBox="0 0 16 16">
   <path d="M7.25 7C6.97386 7 6.75 7.22386 6.75 7.5C6.75 7.77614 6.97386 8 7.25 8H8.75C9.02614 8 9.25 7.77614 9.25 7.5C9.25 7.22386 9.02614 7 8.75 7H7.25Z" fill="currentColor"/>
    <path fill-rule="evenodd" clip-rule="evenodd" d="M6.5 2C6.10218 2 5.72064 2.15804 5.43934 2.43934C5.15804 2.72064 5 3.10218 5 3.5V4H2.50049C1.9482 4 1.50049 4.44772 1.50049 5V7.88164C1.50027 7.89015 1.50027 7.89866 1.50049 7.90714V13C1.50049 13.5523 1.9482 14 2.50049 14H13.5005C14.0528 14 14.5005 13.5523 14.5005 13V7.90374C14.5006 7.89716 14.5006 7.89058 14.5005 7.88399V5C14.5005 4.44772 14.0528 4 13.5005 4H11V3.5C11 3.10218 10.842 2.72064 10.5607 2.43934C10.2794 2.15804 9.89783 2 9.5 2H6.5ZM2.50049 13V8.72817C4.20863 9.56608 6.08987 10.0029 8 10C9.9105 10.0029 11.7921 9.56592 13.5005 8.72769V13H2.50049ZM8.00079 9.00001C9.92384 9.00303 11.8151 8.52145 13.5005 7.60183V5H2.50049V7.60236C4.18567 8.52164 6.07654 9.00303 7.99921 9.00001H8.00079ZM10 4V3.5C10 3.36739 9.94732 3.24022 9.85355 3.14645C9.75979 3.05268 9.63261 3 9.5 3H6.5C6.36739 3 6.24022 3.05268 6.14645 3.14645C6.05268 3.24022 6 3.36739 6 3.5V4H10Z" fill="currentColor"/>
  </symbol>


  <!-- Icono de luz-obra -->
  <symbol id="luz-obra" viewBox="0 0 20 20">
   <path fill-rule="evenodd" clip-rule="evenodd" d="M12.7854 0.693975C13.034 0.82155 13.1677 1.09862 13.1129 1.3726L11.9671 7.10143L16.4695 8.78982C16.6649 8.86309 16.8108 9.02904 16.8585 9.2322C16.9062 9.43536 16.8493 9.64891 16.7069 9.80147L7.95692 19.1765C7.76628 19.3807 7.46322 19.4336 7.21464 19.3061C6.96606 19.1785 6.83235 18.9014 6.88715 18.6274L8.03291 12.8986L3.53056 11.2102C3.33517 11.137 3.18923 10.971 3.14155 10.7678C3.09386 10.5647 3.15071 10.3511 3.2931 10.1986L12.0431 0.823574C12.2337 0.619313 12.5368 0.566401 12.7854 0.693975ZM4.84477 10.3681L8.96946 11.9148C9.25637 12.0224 9.42297 12.3221 9.36287 12.6226L8.54438 16.7151L15.1552 9.63199L11.0306 8.08523C10.7437 7.97764 10.5771 7.67792 10.6371 7.37745L11.4556 3.28499L4.84477 10.3681Z" fill="currentColor"/>
  </symbol>

  <!-- Icono de luz-definitva -->
  <symbol id="luz-definitiva" viewBox="0 0 20 20">
    <path fill-rule="evenodd" clip-rule="evenodd" d="M6.75 18.125C6.75 17.7799 7.02982 17.5 7.375 17.5H13.625C13.9702 17.5 14.25 17.7799 14.25 18.125C14.25 18.4702 13.9702 18.75 13.625 18.75H7.375C7.02982 18.75 6.75 18.4702 6.75 18.125Z" fill="currentColor"/>
    <path fill-rule="evenodd" clip-rule="evenodd" d="M10.5 10.625C10.8452 10.625 11.125 10.9049 11.125 11.25V15.625C11.125 15.9702 10.8452 16.25 10.5 16.25C10.1548 16.25 9.875 15.9702 9.875 15.625V11.25C9.875 10.9049 10.1548 10.625 10.5 10.625Z" fill="currentColor"/>
    <path fill-rule="evenodd" clip-rule="evenodd" d="M7.55806 8.30809C7.80213 8.06401 8.19786 8.06401 8.44194 8.30809L10.5 10.3661L12.5581 8.30809C12.8021 8.06401 13.1979 8.06401 13.4419 8.30809C13.686 8.55216 13.686 8.94789 13.4419 9.19197L10.9419 11.692C10.6979 11.936 10.3021 11.936 10.0581 11.692L7.55806 9.19197C7.31398 8.94789 7.31398 8.55216 7.55806 8.30809Z" fill="currentColor"/>
    <path fill-rule="evenodd" clip-rule="evenodd" d="M13.6802 3.48538C12.7056 2.81737 11.5455 2.47318 10.3643 2.50162C7.31881 2.5733 4.85825 5.10938 4.87509 8.15685C4.87911 9.00535 5.07542 9.8424 5.44925 10.6041C5.82296 11.3656 6.36437 12.0325 7.0328 12.5547C7.33311 12.7885 7.57627 13.0877 7.74384 13.4294C7.91144 13.7712 7.99903 14.1466 7.99998 14.5273L7.99998 14.5288L7.99999 15L13 15L13 14.5257C13.0023 14.1433 13.0915 13.7664 13.2608 13.4235C13.4299 13.0813 13.6744 12.7819 13.9759 12.5479C14.9043 11.8182 15.5795 10.8149 15.9059 9.68005C16.2324 8.54458 16.1932 7.3351 15.7937 6.22319C15.3942 5.11127 14.6547 4.15338 13.6802 3.48538ZM6.64873 13.0478L6.26402 13.5404C5.4464 12.9018 4.78417 12.0862 4.3271 11.1548C3.87008 10.2236 3.63006 9.20087 3.6251 8.16353C3.60462 4.43585 6.60642 1.33991 10.3343 1.25199M6.64873 13.0478L6.2648 13.541C6.41547 13.6583 6.53745 13.8083 6.62151 13.9797C6.70547 14.151 6.7494 14.339 6.74998 14.5297L6.74998 14.5304L6.74999 15C6.74999 15.3316 6.88169 15.6495 7.11611 15.8839C7.35053 16.1183 7.66847 16.25 7.99999 16.25H13C13.3315 16.25 13.6495 16.1183 13.8839 15.8839C14.1183 15.6495 14.25 15.3316 14.25 15L14.25 14.5315C14.2514 14.3391 14.2964 14.1496 14.3816 13.9771C14.467 13.8041 14.5906 13.6529 14.7431 13.5347L14.7464 13.5322C15.8821 12.6402 16.708 11.4133 17.1072 10.0256C17.5063 8.63776 17.4583 7.15952 16.97 5.80053C16.4818 4.44153 15.578 3.27078 14.3869 2.45434C13.1959 1.63796 11.7778 1.2173 10.3343 1.25199" fill="currentColor"/>
  </symbol>

  <!-- Icono de agua-obra -->
  <symbol id="agua-obra" viewBox="0 0 20 20">
    <path fill-rule="evenodd" clip-rule="evenodd" d="M10.0267 1.10975L9.67857 1.60714L9.3304 1.10975C9.53945 0.963416 9.81769 0.963416 10.0267 1.10975ZM9.67857 2.36607C9.53057 2.48151 9.34154 2.63354 9.12313 2.81919C8.57084 3.28863 7.83515 3.96932 7.10101 4.81357C5.61791 6.51914 4.21429 8.80789 4.21429 11.3214C4.21429 12.7706 4.78999 14.1605 5.81474 15.1853C6.83949 16.21 8.22935 16.7857 9.67857 16.7857C11.1278 16.7857 12.5177 16.21 13.5424 15.1853C14.5672 14.1605 15.1429 12.7706 15.1429 11.3214C15.1429 8.80789 13.7392 6.51914 12.2561 4.81357C11.522 3.96932 10.7863 3.28863 10.234 2.81919C10.0156 2.63354 9.82657 2.48151 9.67857 2.36607ZM9.3304 1.10975C9.33059 1.10962 9.3304 1.10975 9.67857 1.60714C10.0267 1.10975 10.0266 1.10962 10.0267 1.10975L10.0276 1.11036L10.029 1.11136L10.0335 1.11452L10.049 1.1255C10.0621 1.13488 10.0808 1.14835 10.1047 1.16583C10.1526 1.20077 10.2214 1.25176 10.3081 1.31805C10.4815 1.45057 10.727 1.64452 11.0204 1.89398C11.6066 2.39217 12.3887 3.1155 13.1724 4.01678C14.725 5.80229 16.3571 8.37068 16.3571 11.3214C16.3571 13.0927 15.6535 14.7914 14.401 16.0439C13.1486 17.2964 11.4498 18 9.67857 18C7.9073 18 6.20858 17.2964 4.95611 16.0439C3.70363 14.7914 3 13.0927 3 11.3214C3 8.37068 4.63209 5.80229 6.1847 4.01678C6.96843 3.1155 7.75059 2.39217 8.3367 1.89398C8.63017 1.64452 8.87561 1.45057 9.04901 1.31805C9.13574 1.25176 9.20453 1.20077 9.25241 1.16583C9.27635 1.14835 9.29506 1.13488 9.30818 1.1255L9.32363 1.11452L9.32811 1.11136L9.32953 1.11036L9.3304 1.10975Z" fill="currentColor"/>
    <path fill-rule="evenodd" clip-rule="evenodd" d="M13.3726 11.3347C13.7032 11.3913 13.9252 11.7051 13.8686 12.0356C13.7202 12.902 13.3065 13.7009 12.6846 14.3221C12.0626 14.9433 11.2631 15.356 10.3966 15.5033C10.066 15.5595 9.75244 15.3371 9.69625 15.0065C9.64006 14.676 9.8625 14.3624 10.1931 14.3062C10.8117 14.2011 11.3825 13.9064 11.8265 13.463C12.2705 13.0195 12.5658 12.4491 12.6717 11.8306C12.7283 11.5001 13.0421 11.2781 13.3726 11.3347Z" fill="currentColor"/>
  </symbol>

  <!-- Icono de agua-definitiva -->
  <symbol id="agua-definitiva" viewBox="0 0 20 20">
    <path d="M15.4829 13.66L15.4751 13.6432C15.4182 13.5181 15.3258 13.4157 15.2129 13.3451H16.87C16.9448 13.3451 17.004 13.2825 16.9998 13.2083L16.9757 12.7806C16.8876 11.2159 16.5018 9.86407 15.8289 8.7627C15.2858 7.87357 14.5592 7.1497 13.6693 6.61149C12.6406 5.98904 11.4434 5.66015 10.2069 5.66015H9.75217V4.24027H12.8133C12.8852 4.24027 12.9434 4.18227 12.9434 4.11066V1.12961C12.9434 1.058 12.8852 1 12.8133 1H4.1301C4.05822 1 4 1.058 4 1.12961V4.11066C4 4.18227 4.05822 4.24027 4.1301 4.24027H6.43539V5.66015H4.1301C4.05822 5.66015 4 5.71815 4 5.78976V9.90327C4 9.97424 4.05724 10.0322 4.12879 10.0329L4.53079 10.0374C4.56006 10.0374 7.46704 10.0689 9.26464 10.0458C9.78242 10.0381 10.2908 10.1453 10.736 10.3527C12.3723 11.1145 12.3603 12.7291 12.359 12.7942L12.3411 13.2103C12.3378 13.2838 12.397 13.3454 12.4712 13.3454H14.4802C14.3676 13.4157 14.2753 13.5181 14.218 13.6435L14.138 13.8195C13.8629 14.4238 13.5139 15.0407 13.0709 15.7056C12.8253 16.0744 12.7031 16.504 12.7177 16.9483C12.7535 18.0393 13.6381 18.9391 14.7316 18.9968C14.7709 18.9987 14.8096 19 14.8487 19C15.3967 19 15.9125 18.7955 16.3126 18.4177C16.735 18.0188 16.977 17.4573 16.977 16.8776C16.977 16.4677 16.8593 16.0698 16.6368 15.727C16.1577 14.9889 15.7801 14.313 15.4832 13.6607L15.4829 13.66ZM5.07329 3.04104V2.19857C5.07329 2.12696 5.13151 2.06896 5.20338 2.06896H11.7407C11.8126 2.06896 11.8708 2.12696 11.8708 2.19857V3.04104C11.8708 3.11265 11.8126 3.17065 11.7407 3.17065H5.20338C5.13151 3.17065 5.07329 3.11265 5.07329 3.04104ZM7.50835 4.23994H8.67921V5.65982H7.50835V4.23994ZM13.3682 12.1695C13.3308 11.9732 13.2719 11.7441 13.1795 11.4991C12.8234 10.5549 12.1355 9.82324 11.1904 9.38321C10.5994 9.10812 9.93008 8.96749 9.25065 8.97591C7.98743 8.99211 6.16739 8.98142 5.20208 8.97364C5.13053 8.973 5.07329 8.91532 5.07329 8.84403V6.8584C5.07329 6.78679 5.13151 6.72879 5.20338 6.72879H10.2072C11.247 6.72879 12.2516 7.00421 13.1125 7.52492C13.8538 7.97338 14.4593 8.57671 14.9124 9.31808C15.3908 10.1013 15.7018 11.0442 15.84 12.1287C15.8497 12.2065 15.7899 12.2755 15.7109 12.2755H13.496C13.4332 12.2755 13.3799 12.2308 13.3682 12.1695ZM15.5736 17.6414C15.3612 17.8423 15.0825 17.9437 14.7882 17.9288C14.2463 17.9003 13.8079 17.4541 13.79 16.9129C13.7829 16.6923 13.843 16.4791 13.9647 16.2966C14.3091 15.7798 14.6015 15.2876 14.8503 14.8055C15.1023 15.2867 15.3951 15.7831 15.7353 16.307C15.8455 16.4765 15.9034 16.6738 15.9034 16.877C15.9034 17.1689 15.7863 17.4401 15.5736 17.6414Z" fill="currentColor"/>
  </symbol>

  <!-- Icono de Download -->
  <symbol id="download" viewBox="0 0 20 20">
    <path d="M10 2.5C10.3452 2.5 10.625 2.77982 10.625 3.125V10.3664L12.8394 8.15261C13.0835 7.90856 13.4792 7.90862 13.7232 8.15272C13.9673 8.39683 13.9672 8.79256 13.7231 9.03661L10.4419 12.317C10.1978 12.561 9.80218 12.561 9.55812 12.317L6.27687 9.03661C6.03276 8.79256 6.0327 8.39683 6.27675 8.15272C6.5208 7.90862 6.91652 7.90856 7.16063 8.15261L9.375 10.3664V3.125C9.375 2.77982 9.65482 2.5 10 2.5Z" fill="currentColor"/>
    <path d="M3.75 11.875C3.75 11.5298 3.47018 11.25 3.125 11.25C2.77982 11.25 2.5 11.5298 2.5 11.875V16.25C2.5 16.5815 2.6317 16.8995 2.86612 17.1339C3.10054 17.3683 3.41848 17.5 3.75 17.5H16.25C16.5815 17.5 16.8995 17.3683 17.1339 17.1339C17.3683 16.8995 17.5 16.5815 17.5 16.25V11.875C17.5 11.5298 17.2202 11.25 16.875 11.25C16.5298 11.25 16.25 11.5298 16.25 11.875V16.25H3.75V11.875Z" fill="currentColor"/>
  </symbol>

  <!-- Icono de Trash -->
  <symbol id="trash" viewBox="0 0 20 20">
    <path d="M8.125 7.5C8.47018 7.5 8.75 7.77982 8.75 8.125V13.125C8.75 13.4702 8.47018 13.75 8.125 13.75C7.77982 13.75 7.5 13.4702 7.5 13.125V8.125C7.5 7.77982 7.77982 7.5 8.125 7.5Z" fill="currentColor"/>
    <path d="M12.5 13.125V8.125C12.5 7.77982 12.2202 7.5 11.875 7.5C11.5298 7.5 11.25 7.77982 11.25 8.125V13.125C11.25 13.4702 11.5298 13.75 11.875 13.75C12.2202 13.75 12.5 13.4702 12.5 13.125Z" fill="currentColor"/>
    <path fill-rule="evenodd" clip-rule="evenodd" d="M8.125 1.25C7.62772 1.25 7.15081 1.44754 6.79917 1.79917C6.44754 2.15081 6.25 2.62772 6.25 3.125V3.75L4.37715 3.75L4.375 3.75L4.37285 3.75L3.12469 3.75C2.77952 3.75 2.49969 4.02983 2.49969 4.375C2.49969 4.72018 2.77952 5 3.12469 5H3.75V16.25C3.75 16.5815 3.8817 16.8995 4.11612 17.1339C4.35054 17.3683 4.66848 17.5 5 17.5H15C15.3315 17.5 15.6495 17.3683 15.8839 17.1339C16.1183 16.8995 16.25 16.5815 16.25 16.25V5H16.8747C17.2199 5 17.4997 4.72018 17.4997 4.375C17.4997 4.02982 17.2199 3.75 16.8747 3.75L13.75 3.75V3.125C13.75 2.62772 13.5525 2.15081 13.2008 1.79917C12.8492 1.44754 12.3723 1.25 11.875 1.25H8.125ZM12.5 3.75V3.125C12.5 2.95924 12.4342 2.80027 12.3169 2.68306C12.1997 2.56585 12.0408 2.5 11.875 2.5H8.125C7.95924 2.5 7.80027 2.56585 7.68306 2.68306C7.56585 2.80027 7.5 2.95924 7.5 3.125V3.75L12.5 3.75ZM5 5V16.25H15V5L5 5Z" fill="currentColor"/>
  </symbol>

  <!-- Icono de Check Circle (notificación success) -->
  <symbol id="check-circle" viewBox="0 0 17 17">
    <path fill-rule="evenodd" clip-rule="evenodd" d="M12.0146 5.81846C12.2529 6.06814 12.2437 6.46376 11.994 6.7021L7.41069 11.0771C7.16917 11.3076 6.78911 11.3076 6.54759 11.0771L4.25595 8.8896C4.00627 8.65126 3.99707 8.25564 4.23541 8.00595C4.47374 7.75627 4.86937 7.74707 5.11905 7.98541L6.97915 9.76097L11.131 5.7979C11.3806 5.55957 11.7763 5.56877 12.0146 5.81846Z" fill="currentColor"/>
    <path fill-rule="evenodd" clip-rule="evenodd" d="M8.125 1.25C4.32804 1.25 1.25 4.32804 1.25 8.125C1.25 11.922 4.32804 15 8.125 15C11.922 15 15 11.922 15 8.125C15 4.32804 11.922 1.25 8.125 1.25ZM0 8.125C0 3.63769 3.63769 0 8.125 0C12.6123 0 16.25 3.63769 16.25 8.125C16.25 12.6123 12.6123 16.25 8.125 16.25C3.63769 16.25 0 12.6123 0 8.125Z" fill="currentColor"/>
  </symbol>

  <!-- Icono de X Circle (notificación error) -->
  <symbol id="x-circle" viewBox="0 0 16 16">
    <path fill-rule="evenodd" clip-rule="evenodd" d="M7.87879 1.21212C4.19689 1.21212 1.21212 4.19689 1.21212 7.87879C1.21212 11.5607 4.19689 14.5455 7.87879 14.5455C11.5607 14.5455 14.5455 11.5607 14.5455 7.87879C14.5455 4.19689 11.5607 1.21212 7.87879 1.21212ZM0 7.87879C0 3.52745 3.52745 0 7.87879 0C12.2301 0 15.7576 3.52745 15.7576 7.87879C15.7576 12.2301 12.2301 15.7576 7.87879 15.7576C3.52745 15.7576 0 12.2301 0 7.87879Z" fill="currentColor"/>
    <path fill-rule="evenodd" clip-rule="evenodd" d="M10.7316 5.026C10.9683 5.26268 10.9683 5.64641 10.7316 5.8831L5.8831 10.7316C5.64641 10.9683 5.26268 10.9683 5.026 10.7316C4.78931 10.4949 4.78931 10.1112 5.026 9.87448L9.87448 5.026C10.1112 4.78931 10.4949 4.78931 10.7316 5.026Z" fill="currentColor"/>
    <path fill-rule="evenodd" clip-rule="evenodd" d="M5.026 5.026C5.26268 4.78931 5.64641 4.78931 5.8831 5.026L10.7316 9.87448C10.9683 10.1112 10.9683 10.4949 10.7316 10.7316C10.4949 10.9683 10.1112 10.9683 9.87448 10.7316L5.026 5.8831C4.78931 5.64641 4.78931 5.26268 5.026 5.026Z" fill="currentColor"/>
  </symbol>

  <!-- Icono de X (cerrar notificación) -->
  <symbol id="x-close" viewBox="0 0 16 16">
    <path d="M12.8536 3.85355C13.0488 3.65829 13.0488 3.34171 12.8536 3.14645C12.6583 2.95118 12.3417 2.95118 12.1464 3.14645L8 7.29289L3.85355 3.14645C3.65829 2.95118 3.34171 2.95118 3.14645 3.14645C2.95118 3.34171 2.95118 3.65829 3.14645 3.85355L7.29289 8L3.14645 12.1464C2.95118 12.3417 2.95118 12.6583 3.14645 12.8536C3.34171 13.0488 3.65829 13.0488 3.85355 12.8536L8 8.70711L12.1464 12.8536C12.3417 13.0488 12.6583 13.0488 12.8536 12.8536C13.0488 12.6583 13.0488 12.3417 12.8536 12.1464L8.70711 8L12.8536 3.85355Z" fill="currentColor"/>
  </symbol>

</svg>
