<svg xmlns="http://www.w3.org/2000/svg" style="display: none;">
  <!-- Logo Zenova -->
  <symbol id="zenova-logo" viewBox="0 0 173 39">
    <path d="M33.098 10.581L26.4743 17.2047L25.8295 16.938V7.57185H21.9919V16.938C21.6817 17.0673 21.6586 17.0768 21.347 17.2047L4.14374 0L1.43115 2.71259L18.6358 19.9173L18.3692 20.5621H9.003V24.3997H18.3692C18.4984 24.7099 18.5079 24.733 18.6358 25.0445L12.0122 31.6682L14.7247 34.3808L21.3484 27.7571L21.9932 28.0237V37.3899H25.8308V28.0237C26.141 27.8945 26.1641 27.885 26.4757 27.7571L33.0993 34.3808L35.8119 31.6682L29.1882 25.0445L29.4549 24.3997H38.8211V20.5621H29.4549C29.3256 20.2519 29.3161 20.2288 29.1882 19.9173L35.8119 13.2936L33.0993 10.581H33.098Z" fill="url(#paint0_linear_12835_86578)"/>
    <g clip-path="url(#clip0_12835_86578)">
      <path d="M48.6852 32.3843V28.2357L59.2277 16.9333V16.4006H48.7173V12.4805H65.4311V16.5143L54.6991 27.9315V28.4262H65.508V32.3843H48.6852Z" fill="#0033CC"/>
      <path d="M77.7608 32.9156C76.1365 32.9156 74.697 32.6814 73.4412 32.2119C72.1854 31.7424 71.1258 31.0697 70.2637 30.195C69.4005 29.3203 68.7542 28.2676 68.3226 27.0359C67.891 25.8053 67.6752 24.3911 67.6752 22.7921C67.6752 21.193 67.891 19.773 68.3226 18.4541C68.7542 17.1351 69.3879 15.9872 70.2259 15.0103C71.0627 14.0334 72.0843 13.285 73.2897 12.765C74.495 12.245 75.8587 11.9844 77.3808 11.9844C78.903 11.9844 80.1646 12.2197 81.3194 12.6881C82.473 13.1576 83.4315 13.8739 84.1926 14.8381C84.9537 15.8024 85.5242 16.9882 85.9053 18.3967C86.2853 19.8052 86.4379 21.4478 86.3622 23.3247L70.7964 23.4004V20.6225L83.5452 20.5467L81.8325 22.0689C81.9852 20.6225 81.8761 19.4367 81.5088 18.5103C81.1403 17.5839 80.595 16.8998 79.8718 16.4555C79.1486 16.0124 78.3302 15.7897 77.4176 15.7897C76.4028 15.7897 75.5086 16.0629 74.7349 16.6082C73.9612 17.1546 73.3585 17.9398 72.9269 18.9683C72.4953 19.9957 72.2795 21.2458 72.2795 22.7174C72.2795 24.9249 72.7616 26.5745 73.7259 27.665C74.6901 28.7566 76.0343 29.3019 77.7597 29.3019C78.5207 29.3019 79.1613 29.2066 79.6813 29.0161C80.2013 28.8255 80.6386 28.5661 80.9945 28.2355C81.3492 27.906 81.635 27.5376 81.8508 27.1312C82.0667 26.726 82.2377 26.3196 82.3651 25.9132H86.3679C86.3679 26.7168 86.1383 28.3239 85.5426 29.3386C85.1075 30.0802 84.5152 30.715 83.792 31.2603C83.0688 31.8067 82.2124 32.2188 81.2229 32.4977C80.2334 32.7767 79.0786 32.9167 77.7597 32.9167L77.7608 32.9156Z" fill="#0033CC"/>
      <path d="M90.1297 32.3818V20.2035L90.1676 12.478H94.2014L94.0487 18.5677H94.7719C95.1013 17.0961 95.5708 15.8655 96.1804 14.876C96.7888 13.8865 97.5567 13.1576 98.4831 12.6881C99.4095 12.2186 100.482 11.9844 101.698 11.9844C103.982 11.9844 105.72 12.7902 106.912 14.4007C108.105 16.0124 108.701 18.4793 108.701 21.8025V32.3829H103.829V22.2973C103.829 20.1415 103.505 18.562 102.859 17.5587C102.212 16.5565 101.254 16.0549 99.9857 16.0549C98.8941 16.0549 97.9815 16.3912 97.2457 17.0639C96.5098 17.7366 95.9519 18.624 95.5708 19.7283C95.1897 20.8326 94.9739 22.031 94.9234 23.3247V32.3829H90.1285L90.1297 32.3818Z" fill="#0033CC"/>
      <path d="M122.021 32.9167C120.068 32.9167 118.349 32.5103 116.865 31.6988C115.381 30.8872 114.213 29.7002 113.364 28.1402C112.513 26.5802 112.088 24.6586 112.088 22.3742C112.088 20.0898 112.52 18.1372 113.382 16.5898C114.244 15.0424 115.424 13.8876 116.921 13.1266C118.418 12.3655 120.118 11.9844 122.021 11.9844C123.925 11.9844 125.661 12.3781 127.159 13.1644C128.656 13.9508 129.836 15.1239 130.698 16.6851C131.561 18.2451 131.992 20.1805 131.992 22.489C131.992 24.7975 131.555 26.7581 130.679 28.2929C129.803 29.8288 128.61 30.9825 127.102 31.7562C125.593 32.5299 123.898 32.9167 122.021 32.9167ZM122.212 29.2261C123.277 29.2261 124.171 28.9782 124.895 28.4834C125.618 27.9887 126.183 27.2471 126.588 26.2576C126.993 25.2681 127.196 24.0881 127.196 22.7186C127.196 21.2722 126.987 20.0359 126.568 19.0085C126.149 17.9811 125.547 17.1879 124.76 16.63C123.974 16.0721 123.01 15.7932 121.868 15.7932C120.853 15.7932 119.97 16.0411 119.223 16.5359C118.474 17.0306 117.897 17.7607 117.49 18.7238C117.084 19.6881 116.882 20.8808 116.882 22.3007C116.882 24.5334 117.357 26.2461 118.309 27.4388C119.261 28.6315 120.56 29.2273 122.21 29.2273L122.212 29.2261Z" fill="#0033CC"/>
      <path d="M139.984 32.3835L133.21 12.5176H138.5L143.105 28.5403H143.676L148.28 12.5176H153.456L146.605 32.3835H139.983H139.984Z" fill="#0033CC"/>
      <path d="M172.348 32.4575H168.101L168.033 27.6271H167.463C167.107 28.5661 166.6 29.4477 165.941 30.2719C165.281 31.0961 164.476 31.7435 163.524 32.213C162.573 32.6825 161.475 32.9167 160.232 32.9167C159.14 32.9167 158.164 32.7009 157.301 32.2693C156.438 31.8388 155.766 31.1983 155.285 30.3477C154.802 29.4982 154.561 28.4639 154.561 27.246C154.561 26.206 154.752 25.3175 155.132 24.5817C155.512 23.8458 156.096 23.2432 156.882 22.7737C157.669 22.3042 158.646 21.9047 159.813 21.5753C160.979 21.2458 162.363 20.9795 163.962 20.7763C164.773 20.65 165.452 20.5226 165.998 20.3963C166.543 20.2701 166.95 20.0726 167.216 19.8063C167.482 19.54 167.616 19.1405 167.616 18.6079C167.616 17.8216 167.342 17.1431 166.797 16.5715C166.251 16.001 165.356 15.7151 164.114 15.7151C163.379 15.7151 162.688 15.8483 162.04 16.1146C161.393 16.3809 160.822 16.7804 160.327 17.313C159.833 17.8457 159.496 18.5436 159.318 19.4057L155.056 18.0741C155.31 17.1098 155.704 16.2478 156.236 15.4867C156.769 14.7256 157.422 14.0782 158.196 13.5455C158.969 13.0129 159.876 12.6192 160.916 12.3655C161.956 12.1118 163.061 11.9844 164.227 11.9844C166.078 11.9844 167.608 12.2886 168.813 12.8981C170.018 13.5065 170.907 14.4329 171.477 15.6761C172.048 16.9193 172.334 18.5298 172.334 20.5088V24.2384M162.134 29.3398C162.642 29.3398 163.155 29.2514 163.676 29.0735C164.196 28.8967 164.709 28.6361 165.218 28.2929C165.725 27.9508 166.194 27.5123 166.626 26.9797C167.057 26.447 167.425 25.826 167.729 25.1154L167.653 21.69L168.605 21.9185C168.148 22.2479 167.609 22.5085 166.988 22.6991C166.365 22.8896 165.707 23.048 165.009 23.1743C164.311 23.3017 163.613 23.428 162.916 23.5554C162.218 23.6828 161.59 23.8539 161.032 24.0697C160.474 24.2855 160.03 24.5897 159.701 24.9834C159.371 25.3772 159.206 25.9155 159.206 26.6009C159.206 27.4641 159.478 28.1356 160.024 28.6177C160.57 29.0999 161.273 29.3409 162.137 29.3409L162.134 29.3398Z" fill="#0033CC"/>
    </g>
    <defs>
      <linearGradient id="paint0_linear_12835_86578" x1="34.4018" y1="32.9706" x2="1.43116" y2="-2.02613" gradientUnits="userSpaceOnUse">
        <stop stop-color="#0033CC"/>
        <stop offset="0.33" stop-color="#0033CC"/>
        <stop offset="0.897316" stop-color="#0033CC" stop-opacity="0"/>
      </linearGradient>
      <clipPath id="clip0_12835_86578">
        <rect width="123.663" height="20.9312" fill="white" transform="translate(48.6852 11.9844)"/>
      </clipPath>
    </defs>
  </symbol>

  <!-- Icono de Obras -->
  <symbol id="obras" viewBox="0 0 20 18">
    <path d="M16.75 0C17.164 0.000232866 17.5 0.33593 17.5 0.75V2H18.75C18.7947 2.00002 18.8384 2.00421 18.8809 2.01172C18.8864 2.0127 18.8919 2.01355 18.8975 2.01465C18.9101 2.01718 18.9221 2.02223 18.9346 2.02539C18.9688 2.0341 19.0032 2.04303 19.0361 2.05664C19.087 2.07769 19.1342 2.10551 19.1787 2.13672C19.2139 2.16143 19.2488 2.18825 19.2803 2.21973C19.3362 2.27572 19.3776 2.34049 19.4121 2.40723C19.4218 2.42584 19.4333 2.44341 19.4414 2.46289C19.4489 2.48097 19.453 2.50006 19.459 2.51855C19.4829 2.5918 19.5 2.66878 19.5 2.75V8.75C19.5 9.16407 19.164 9.49978 18.75 9.5H17.5V16.75C17.5 17.1641 17.164 17.4998 16.75 17.5C16.3358 17.5 16 17.1642 16 16.75V9.5H3.5V16.75C3.5 17.1641 3.16401 17.4998 2.75 17.5C2.33579 17.5 2 17.1642 2 16.75V9.5H0.75C0.335786 9.5 0 9.16421 0 8.75V2.75C3.30018e-05 2.33581 0.335807 2 0.75 2H2V0.75C2 0.335786 2.33579 0 2.75 0C3.16401 0.000241234 3.5 0.335935 3.5 0.75V2H16V0.75C16 0.335786 16.3358 0 16.75 0ZM2.21777 8H6.43848L10.9385 3.5H6.7168L2.21777 8ZM8.56055 8H12.4385L16.9385 3.5H13.0605L8.56055 8ZM14.5605 8H18V4.56055L14.5605 8ZM1.5 6.5957L4.5957 3.5H1.5V6.5957Z" fill="currentColor"/>
  </symbol>

  <!-- Icono de Services (paperclip) -->
  <symbol id="services" viewBox="0 0 12 13">
    <path fill-rule="evenodd" clip-rule="evenodd" d="M8.04293 0.190301C8.34624 0.0646644 8.67133 2.98024e-08 8.99963 0C9.32794 -5.96046e-08 9.65303 0.0646645 9.95634 0.190301C10.2597 0.315938 10.5353 0.500087 10.7674 0.732233C10.9995 0.964379 11.1837 1.23998 11.3093 1.54329C11.435 1.84661 11.4996 2.1717 11.4996 2.5C11.4996 2.8283 11.435 3.15339 11.3093 3.45671C11.1839 3.75947 11.0002 4.03461 10.7687 4.2665C10.7682 4.26692 10.7678 4.26734 10.7674 4.26777L4.56067 10.561C4.27937 10.8423 3.89783 11.0003 3.5 11.0003C3.10218 11.0003 2.72064 10.8423 2.43934 10.561C2.15804 10.2797 2 9.89813 2 9.50031C2 9.10324 2.15744 8.7224 2.43774 8.44125L7.64318 3.14937C7.83683 2.95251 8.1534 2.9499 8.35026 3.14355C8.54713 3.3372 8.54973 3.65377 8.35609 3.85063L3.14646 9.14676C3.05269 9.24053 3 9.3677 3 9.50031C3 9.63291 3.05268 9.76009 3.14645 9.85386C3.24022 9.94763 3.36739 10.0003 3.5 10.0003C3.63213 10.0003 3.75887 9.94801 3.85254 9.85487C3.85288 9.85453 3.85322 9.8542 3.85355 9.85386L10.0603 3.56065C10.1996 3.42136 10.3101 3.25601 10.3855 3.07403C10.4608 2.89204 10.4996 2.69698 10.4996 2.5C10.4996 2.30302 10.4608 2.10796 10.3855 1.92597C10.3101 1.74399 10.1996 1.57863 10.0603 1.43934C9.92101 1.30005 9.75565 1.18956 9.57366 1.11418C9.39167 1.0388 9.19662 1 8.99963 1C8.80265 1 8.6076 1.0388 8.42561 1.11418C8.24412 1.18936 8.07917 1.29944 7.94012 1.43819L1.73224 7.73255C1.2634 8.20139 1 8.83726 1 9.50031C1 10.1633 1.26339 10.7992 1.73223 11.2681C2.20107 11.7369 2.83696 12.0003 3.5 12.0003C4.16304 12.0003 4.79893 11.7369 5.26777 11.2681L10.3963 6.14622C10.5917 5.95108 10.9083 5.95129 11.1034 6.14668C11.2986 6.34207 11.2983 6.65865 11.103 6.85379L5.97487 11.9752C5.3185 12.6316 4.42826 13.0003 3.5 13.0003C2.57174 13.0003 1.6815 12.6316 1.02513 11.9752C0.368749 11.3188 0 10.4286 0 9.50031C0 8.57265 0.368274 7.68296 1.02386 7.0267L7.23186 0.732225C7.46401 0.500078 7.73961 0.315938 8.04293 0.190301Z" fill="currentColor"/>
  </symbol>

  <!-- Icono de Info -->
  <symbol id="info" viewBox="0 0 13 13">
    <path fill-rule="evenodd" clip-rule="evenodd" d="M6.5 1C3.46243 1 1 3.46243 1 6.5C1 9.53757 3.46243 12 6.5 12C9.53757 12 12 9.53757 12 6.5C12 3.46243 9.53757 1 6.5 1ZM0 6.5C0 2.91015 2.91015 0 6.5 0C10.0899 0 13 2.91015 13 6.5C13 10.0899 10.0899 13 6.5 13C2.91015 13 0 10.0899 0 6.5Z" fill="currentColor"/>
    <path fill-rule="evenodd" clip-rule="evenodd" d="M6.5 3C6.77614 3 7 3.22386 7 3.5V7C7 7.27614 6.77614 7.5 6.5 7.5C6.22386 7.5 6 7.27614 6 7V3.5C6 3.22386 6.22386 3 6.5 3Z" fill="currentColor"/>
    <path d="M6.5 10C6.91421 10 7.25 9.66421 7.25 9.25C7.25 8.83579 6.91421 8.5 6.5 8.5C6.08579 8.5 5.75 8.83579 5.75 9.25C5.75 9.66421 6.08579 10 6.5 10Z" fill="currentColor"/>
  </symbol>

  <!-- Icono de Cerrar sesión -->
  <symbol id="logout" viewBox="0 0 20 20">
    <path d="M3.75 2.5C3.41848 2.5 3.10054 2.6317 2.86612 2.86612C2.6317 3.10054 2.5 3.41848 2.5 3.75V16.25C2.5 16.5815 2.6317 16.8995 2.86612 17.1339C3.10054 17.3683 3.41848 17.5 3.75 17.5H8.125C8.47018 17.5 8.75 17.2202 8.75 16.875C8.75 16.5298 8.47018 16.25 8.125 16.25H3.75V3.75H8.125C8.47018 3.75 8.75 3.47018 8.75 3.125C8.75 2.77982 8.47018 2.5 8.125 2.5H3.75Z" fill="currentColor"/>
    <path d="M13.1528 6.27675C13.3969 6.0327 13.7926 6.03276 14.0367 6.27687L17.3171 9.55812C17.5611 9.80218 17.5611 10.1978 17.3171 10.4419L14.0367 13.7231C13.7926 13.9672 13.3969 13.9673 13.1528 13.7232C12.9087 13.4792 12.9086 13.0835 13.1527 12.8394L15.3665 10.625H8.125C7.77982 10.625 7.5 10.3452 7.5 10C7.5 9.65482 7.77982 9.375 8.125 9.375H15.3665L13.1527 7.16063C12.9086 6.91652 12.9087 6.5208 13.1528 6.27675Z" fill="currentColor"/>
  </symbol>

  <!-- Icono de Usuario/Inmobiliaria -->
  <symbol id="user" viewBox="0 0 20 20">
    <path fill-rule="evenodd" clip-rule="evenodd" d="M12.885 12.3298C14.5263 11.3473 15.625 9.55196 15.625 7.5C15.625 4.3934 13.1066 1.875 10 1.875C6.8934 1.875 4.375 4.3934 4.375 7.5C4.375 9.55197 5.47375 11.3473 7.115 12.3298C6.49017 12.5318 5.88575 12.7997 5.3123 13.1307C3.88694 13.9534 2.70316 15.1366 1.87989 16.5616C1.70721 16.8605 1.80952 17.2428 2.10841 17.4154C2.40729 17.5881 2.78956 17.4858 2.96224 17.1869C3.67578 15.9519 4.70177 14.9263 5.93714 14.2133C7.17248 13.5004 8.57368 13.125 10 13.125C10 13.125 9.99996 13.125 10 13.125C11.4264 13.125 12.8277 13.5004 14.0631 14.2134C15.2985 14.9264 16.3244 15.952 17.0379 17.1871C17.2106 17.486 17.5929 17.5883 17.8918 17.4156C18.1907 17.2429 18.293 16.8607 18.1203 16.5618C17.2971 15.1368 16.1133 13.9535 14.688 13.1308C14.1144 12.7998 13.5099 12.5318 12.885 12.3298ZM5.625 7.5C5.625 5.08375 7.58375 3.125 10 3.125C12.4162 3.125 14.375 5.08375 14.375 7.5C14.375 9.91622 12.4163 11.875 10.0001 11.875C10 11.875 10.0001 11.875 10.0001 11.875C7.58383 11.875 5.625 9.91625 5.625 7.5Z" fill="currentColor"/>
  </symbol>

  <!-- Icono de Plus -->
  <symbol id="plus" viewBox="0 0 20 20">
    <path d="M10.625 3.125C10.625 2.77982 10.3452 2.5 10 2.5C9.65482 2.5 9.375 2.77982 9.375 3.125V9.375H3.125C2.77982 9.375 2.5 9.65482 2.5 10C2.5 10.3452 2.77982 10.625 3.125 10.625H9.375V16.875C9.375 17.2202 9.65482 17.5 10 17.5C10.3452 17.5 10.625 17.2202 10.625 16.875V10.625H16.875C17.2202 10.625 17.5 10.3452 17.5 10C17.5 9.65482 17.2202 9.375 16.875 9.375H10.625V3.125Z" fill="currentColor"/>
  </symbol>

  <!-- Icono de Search -->
  <symbol id="search" viewBox="0 0 24 24">
    <path fill-rule="evenodd" clip-rule="evenodd" d="M10.875 2.1C6.02871 2.1 2.10001 6.0287 2.10001 10.875C2.10001 15.7213 6.02871 19.65 10.875 19.65C12.9737 19.65 14.9006 18.9131 16.4106 17.684L20.3632 21.6365C20.7146 21.988 21.2845 21.988 21.6359 21.6365C21.9874 21.285 21.9874 20.7152 21.6359 20.3637L17.6835 16.4112C18.9129 14.9012 19.65 12.974 19.65 10.875C19.65 6.0287 15.7213 2.1 10.875 2.1ZM3.90001 10.875C3.90001 7.02281 7.02282 3.9 10.875 3.9C14.7272 3.9 17.85 7.02281 17.85 10.875C17.85 14.7272 14.7272 17.85 10.875 17.85C7.02282 17.85 3.90001 14.7272 3.90001 10.875Z" fill="currentColor"/>
  </symbol>

  <!-- Icono de CaretDown -->
  <symbol id="caret-down" viewBox="0 0 16 16">
    <path fill-rule="evenodd" clip-rule="evenodd" d="M2.64645 5.64645C2.84171 5.45118 3.15829 5.45118 3.35355 5.64645L8 10.2929L12.6464 5.64645C12.8417 5.45118 13.1583 5.45118 13.3536 5.64645C13.5488 5.84171 13.5488 6.15829 13.3536 6.35355L8.35355 11.3536C8.15829 11.5488 7.84171 11.5488 7.64645 11.3536L2.64645 6.35355C2.45118 6.15829 2.45118 5.84171 2.64645 5.64645Z" fill="currentColor"/>
  </symbol>

  <!-- Icono de Buildings (de Figma) -->
  <symbol id="buildings" viewBox="0 0 23 19">
    <path fill-rule="evenodd" clip-rule="evenodd" d="M0 18C0 17.5858 0.335786 17.25 0.75 17.25H21.75C22.1642 17.25 22.5 17.5858 22.5 18C22.5 18.4142 22.1642 18.75 21.75 18.75H0.75C0.335786 18.75 0 18.4142 0 18Z" fill="currentColor"/>
    <path fill-rule="evenodd" clip-rule="evenodd" d="M1.93885 0.43934C2.22016 0.158035 2.60169 0 2.99951 0H11.9995C12.3973 0 12.7789 0.158035 13.0602 0.43934C13.3415 0.720645 13.4995 1.10218 13.4995 1.5V18C13.4995 18.4142 13.1637 18.75 12.7495 18.75C12.3353 18.75 11.9995 18.4142 11.9995 18V1.5H2.99951L2.99951 18C2.99951 18.4142 2.66373 18.75 2.24951 18.75C1.8353 18.75 1.49951 18.4142 1.49951 18V1.5C1.49951 1.10218 1.65755 0.720645 1.93885 0.43934Z" fill="currentColor"/>
    <path fill-rule="evenodd" clip-rule="evenodd" d="M11.9995 6.75C11.9995 6.33579 12.3353 6 12.7495 6H19.4995C19.8973 6 20.2789 6.15804 20.5602 6.43934C20.8415 6.72065 20.9995 7.10218 20.9995 7.5V18C20.9995 18.4142 20.6637 18.75 20.2495 18.75C19.8353 18.75 19.4995 18.4142 19.4995 18V7.5H12.7495C12.3353 7.5 11.9995 7.16421 11.9995 6.75Z" fill="currentColor"/>
    <path fill-rule="evenodd" clip-rule="evenodd" d="M4.49951 4.5C4.49951 4.08579 4.8353 3.75 5.24951 3.75H8.24951C8.66373 3.75 8.99951 4.08579 8.99951 4.5C8.99951 4.91421 8.66373 5.25 8.24951 5.25H5.24951C4.8353 5.25 4.49951 4.91421 4.49951 4.5Z" fill="currentColor"/>
    <path fill-rule="evenodd" clip-rule="evenodd" d="M5.99951 10.5C5.99951 10.0858 6.3353 9.75 6.74951 9.75H9.74951C10.1637 9.75 10.4995 10.0858 10.4995 10.5C10.4995 10.9142 10.1637 11.25 9.74951 11.25H6.74951C6.3353 11.25 5.99951 10.9142 5.99951 10.5Z" fill="currentColor"/>
    <path fill-rule="evenodd" clip-rule="evenodd" d="M4.49951 14.25C4.49951 13.8358 4.8353 13.5 5.24951 13.5H8.24951C8.66373 13.5 8.99951 13.8358 8.99951 14.25C8.99951 14.6642 8.66373 15 8.24951 15H5.24951C4.8353 15 4.49951 14.6642 4.49951 14.25Z" fill="currentColor"/>
    <path fill-rule="evenodd" clip-rule="evenodd" d="M14.9995 14.25C14.9995 13.8358 15.3353 13.5 15.7495 13.5H17.2495C17.6637 13.5 17.9995 13.8358 17.9995 14.25C17.9995 14.6642 17.6637 15 17.2495 15H15.7495C15.3353 15 14.9995 14.6642 14.9995 14.25Z" fill="currentColor"/>
    <path fill-rule="evenodd" clip-rule="evenodd" d="M14.9995 10.5C14.9995 10.0858 15.3353 9.75 15.7495 9.75H17.2495C17.6637 9.75 17.9995 10.0858 17.9995 10.5C17.9995 10.9142 17.6637 11.25 17.2495 11.25H15.7495C15.3353 11.25 14.9995 10.9142 14.9995 10.5Z" fill="currentColor"/>
  </symbol>

  <!-- Icono de Chevron Right/Down (de Figma) -->
  <symbol id="chevron-table" viewBox="0 0 20 20">
    <path fill-rule="evenodd" clip-rule="evenodd" d="M3.30806 7.05806C3.55214 6.81398 3.94786 6.81398 4.19194 7.05806L10 12.8661L15.8081 7.05806C16.0521 6.81398 16.4479 6.81398 16.6919 7.05806C16.936 7.30214 16.936 7.69786 16.6919 7.94194L10.4419 14.1919C10.1979 14.436 9.80214 14.436 9.55806 14.1919L3.30806 7.94194C3.06398 7.69786 3.06398 7.30214 3.30806 7.05806Z" fill="currentColor"/>
  </symbol>

  <!-- Icono de Document (de Figma) -->
  <symbol id="document" viewBox="0 0 11 13">
    <path fill-rule="evenodd" clip-rule="evenodd" d="M0.292893 0.292893C0.480429 0.105357 0.734783 0 1 0H7.00049C7.1331 0 7.26027 0.0526784 7.35404 0.146447L10.854 3.64645C10.9478 3.74022 11.0005 3.86739 11.0005 4V12C11.0005 12.1313 10.9746 12.2614 10.9244 12.3827C10.8741 12.504 10.8005 12.6142 10.7076 12.7071C10.6147 12.8 10.5045 12.8736 10.3832 12.9239C10.2618 12.9741 10.1318 13 10.0005 13H1C0.734785 13 0.48043 12.8946 0.292893 12.7071C0.105356 12.5196 0 12.2652 0 12V1C0 0.734784 0.105357 0.48043 0.292893 0.292893ZM6.79338 1L1 1L1 12L10.0005 12V4.20711L6.79338 1Z" fill="currentColor"/>
    <path fill-rule="evenodd" clip-rule="evenodd" d="M7.00049 0C7.27663 0 7.50049 0.223858 7.50049 0.5V3.5H10.501C10.7771 3.5 11.0005 3.72386 11.0005 4C11.0005 4.27614 10.7771 4.5 10.501 4.5H7.00049C6.72435 4.5 6.50049 4.27614 6.50049 4V0.5C6.50049 0.223858 6.72435 0 7.00049 0Z" fill="currentColor"/>
    <path fill-rule="evenodd" clip-rule="evenodd" d="M3.00049 7C3.00049 6.72386 3.22435 6.5 3.50049 6.5H7.50049C7.77663 6.5 8.00049 6.72386 8.00049 7C8.00049 7.27614 7.77663 7.5 7.50049 7.5H3.50049C3.22435 7.5 3.00049 7.27614 3.00049 7Z" fill="currentColor"/>
    <path fill-rule="evenodd" clip-rule="evenodd" d="M3.00049 9C3.00049 8.72386 3.22435 8.5 3.50049 8.5H7.50049C7.77663 8.5 8.00049 8.72386 8.00049 9C8.00049 9.27614 7.77663 9.5 7.50049 9.5H3.50049C3.22435 9.5 3.00049 9.27614 3.00049 9Z" fill="currentColor"/>
  </symbol>

  <!-- Icono de Pencil/Edit -->
  <symbol id="pencil" viewBox="0 0 16 16">
    <path d="M10.5 1.70703C10.7652 1.70703 11.0195 1.81246 11.207 2L14 4.79297C14.1875 4.9805 14.293 5.23482 14.293 5.5C14.2929 5.76519 14.1875 6.01951 14 6.20703L6.5 13.707C6.40719 13.7998 6.29704 13.8736 6.17578 13.9238C6.17081 13.9259 6.16516 13.9267 6.16016 13.9287C6.15444 13.9311 6.14836 13.9324 6.14258 13.9346C6.03062 13.9765 5.91269 14 5.79297 14H3C2.7348 14 2.4805 13.8945 2.29297 13.707C2.10545 13.5195 2.00002 13.2652 2 13V10.207C2 10.0871 2.02243 9.96857 2.06445 9.85645C2.066 9.85231 2.0667 9.84785 2.06836 9.84375L2.07617 9.82422C2.12643 9.70294 2.20014 9.59283 2.29297 9.5L9.79297 2C9.98051 1.81246 10.2348 1.70703 10.5 1.70703ZM3 13H4.79297L3 11.207V13ZM3.20703 9.99902L6 12.792L11.293 7.5L8.5 4.70703L3.20703 9.99902ZM9.20703 4L12 6.79297L13.293 5.5L10.5 2.70703L9.20703 4Z" fill="currentColor"/>
  </symbol>

  <!-- Icono de ChatDots -->
  <symbol id="chat-dots" viewBox="0 0 16 16">
    <path d="M4.83443 12.6173L2.82174 14.3092C2.74886 14.3705 2.65999 14.4097 2.5656 14.4222C2.47121 14.4347 2.37521 14.4199 2.2889 14.3797C2.20258 14.3395 2.12954 14.2755 2.07836 14.1952C2.02719 14.1149 2 14.0217 2 13.9265V4C2 3.86739 2.05268 3.74021 2.14645 3.64645C2.24021 3.55268 2.36739 3.5 2.5 3.5H13.5C13.6326 3.5 13.7598 3.55268 13.8536 3.64645C13.9473 3.74021 14 3.86739 14 4V12C14 12.1326 13.9473 12.2598 13.8536 12.3536C13.7598 12.4473 13.6326 12.5 13.5 12.5H5.15617C5.03847 12.5 4.92453 12.5415 4.83443 12.6173Z" stroke="currentColor" stroke-linecap="round" stroke-linejoin="round" fill="none"/>
    <path d="M8 8.75C8.41421 8.75 8.75 8.41421 8.75 8C8.75 7.58579 8.41421 7.25 8 7.25C7.58579 7.25 7.25 7.58579 7.25 8C7.25 8.41421 7.58579 8.75 8 8.75Z" fill="currentColor"/>
    <path d="M5 8.75C5.41421 8.75 5.75 8.41421 5.75 8C5.75 7.58579 5.41421 7.25 5 7.25C4.58579 7.25 4.25 7.58579 4.25 8C4.25 8.41421 4.58579 8.75 5 8.75Z" fill="currentColor"/>
    <path d="M11 8.75C11.4142 8.75 11.75 8.41421 11.75 8C11.75 7.58579 11.4142 7.25 11 7.25C10.5858 7.25 10.25 7.58579 10.25 8C10.25 8.41421 10.5858 8.75 11 8.75Z" fill="currentColor"/>
  </symbol>

  <!-- Icono de Arrow Small (flecha pequeña) -->
  <symbol id="arrow-small" viewBox="0 0 16 16">
    <path fill-rule="evenodd" clip-rule="evenodd" d="M5.64645 2.64645C5.84171 2.45118 6.15829 2.45118 6.35355 2.64645L11.3536 7.64645C11.5488 7.84171 11.5488 8.15829 11.3536 8.35355L6.35355 13.3536C6.15829 13.5488 5.84171 13.5488 5.64645 13.3536C5.45118 13.1583 5.45118 12.8417 5.64645 12.6464L10.2929 8L5.64645 3.35355C5.45118 3.15829 5.45118 2.84171 5.64645 2.64645Z" fill="currentColor"/>
  </symbol>
</svg>
