<svg preserveAspectRatio="none" width="100%" height="100%" overflow="visible" style="display: block;" viewBox="0 0 13 13" fill="none" xmlns="http://www.w3.org/2000/svg">
<g id="vector">
<path fill-rule="evenodd" clip-rule="evenodd" d="M6.5 1C3.46243 1 1 3.46243 1 6.5C1 9.53757 3.46243 12 6.5 12C9.53757 12 12 9.53757 12 6.5C12 3.46243 9.53757 1 6.5 1ZM0 6.5C0 2.91015 2.91015 0 6.5 0C10.0899 0 13 2.91015 13 6.5C13 10.0899 10.0899 13 6.5 13C2.91015 13 0 10.0899 0 6.5Z" fill="var(--fill-0, #989FB3)"/>
<path fill-rule="evenodd" clip-rule="evenodd" d="M6.5 3C6.77614 3 7 3.22386 7 3.5V7C7 7.27614 6.77614 7.5 6.5 7.5C6.22386 7.5 6 7.27614 6 7V3.5C6 3.22386 6.22386 3 6.5 3Z" fill="var(--fill-0, #989FB3)"/>
<path d="M6.5 10C6.91421 10 7.25 9.66421 7.25 9.25C7.25 8.83579 6.91421 8.5 6.5 8.5C6.08579 8.5 5.75 8.83579 5.75 9.25C5.75 9.66421 6.08579 10 6.5 10Z" fill="var(--fill-0, #989FB3)"/>
</g>
</svg>
