<svg preserveAspectRatio="none" width="100%" height="100%" overflow="visible" style="display: block;" viewBox="0 0 11 15" fill="none" xmlns="http://www.w3.org/2000/svg">
<path id="vector" fill-rule="evenodd" clip-rule="evenodd" d="M7.7283 0.0551804C7.92717 0.15724 8.03414 0.378893 7.9903 0.598076L7.07368 5.18115L10.6756 6.53185C10.8319 6.59047 10.9486 6.72324 10.9868 6.88576C11.0249 7.04829 10.9794 7.21913 10.8655 7.34118L3.86554 14.8412C3.71302 15.0046 3.47058 15.0469 3.27171 14.9449C3.07285 14.8428 2.96588 14.6211 3.00972 14.402L3.92633 9.81889L0.324446 8.46818C0.168132 8.40957 0.0513858 8.2768 0.0132373 8.11427C-0.0249111 7.95175 0.0205718 7.7809 0.13448 7.65886L7.13448 0.158859C7.287 -0.00454965 7.52944 -0.0468793 7.7283 0.0551804ZM1.37582 7.79445L4.67557 9.03185C4.9051 9.11793 5.03837 9.3577 4.9903 9.59808L4.3355 12.872L9.6242 7.20559L6.32445 5.96818C6.09492 5.88211 5.96164 5.64233 6.00972 5.40196L6.66451 2.12799L1.37582 7.79445Z" fill="var(--fill-0, #343D54)"/>
</svg>
