<svg preserveAspectRatio="none" width="100%" height="100%" overflow="visible" style="display: block;" viewBox="0 0 14 11" fill="none" xmlns="http://www.w3.org/2000/svg">
<g id="vector">
<path fill-rule="evenodd" clip-rule="evenodd" d="M0.292893 2.29289C0.480429 2.10536 0.734783 2 1 2H3.83333C4.0497 2 4.26024 2.07018 4.43333 2.2L6.16667 3.5H10.5C10.7652 3.5 11.0196 3.60536 11.2071 3.79289C11.3946 3.98043 11.5 4.23478 11.5 4.5V10.0556C11.5 10.306 11.4005 10.5463 11.2234 10.7234C11.0463 10.9005 10.806 11 10.5556 11H1C0.734784 11 0.48043 10.8946 0.292893 10.7071C0.105357 10.5196 0 10.2652 0 10V3C0 2.73478 0.105357 2.48043 0.292893 2.29289ZM3.83333 3H1L1 10H10.5V4.5H6.16667C5.9503 4.5 5.73976 4.42982 5.56667 4.3L3.83333 3Z" fill="var(--fill-0, #12151F)"/>
<path fill-rule="evenodd" clip-rule="evenodd" d="M2.29289 0.292893C2.48043 0.105357 2.73478 0 3 0H5.83333C6.0497 0 6.26024 0.0701775 6.43333 0.2L8.16667 1.5L12.5 1.5C12.7652 1.5 13.0196 1.60536 13.2071 1.79289C13.3946 1.98043 13.5 2.23478 13.5 2.5V8.05556C13.5 8.17958 13.4756 8.30239 13.4281 8.41698C13.3806 8.53156 13.3111 8.63568 13.2234 8.72338C13.1357 8.81108 13.0316 8.88065 12.917 8.92811C12.8024 8.97557 12.6796 9 12.5556 9H11C10.7239 9 10.5 8.77614 10.5 8.5C10.5 8.22386 10.7239 8 11 8H12.5V2.5H8.16667C7.9503 2.5 7.73976 2.42982 7.56667 2.3L5.83333 1L3 1V2.5C3 2.77614 2.77614 3 2.5 3C2.22386 3 2 2.77614 2 2.5V1C2 0.734783 2.10536 0.480429 2.29289 0.292893Z" fill="var(--fill-0, #12151F)"/>
</g>
</svg>
