<svg preserveAspectRatio="none" width="100%" height="100%" overflow="visible" style="display: block;" viewBox="0 0 20 20" fill="none" xmlns="http://www.w3.org/2000/svg">
<g id="vector">
<path d="M8.125 7.5C8.47018 7.5 8.75 7.77982 8.75 8.125V13.125C8.75 13.4702 8.47018 13.75 8.125 13.75C7.77982 13.75 7.5 13.4702 7.5 13.125V8.125C7.5 7.77982 7.77982 7.5 8.125 7.5Z" fill="var(--fill-0, #12151F)"/>
<path d="M12.5 13.125V8.125C12.5 7.77982 12.2202 7.5 11.875 7.5C11.5298 7.5 11.25 7.77982 11.25 8.125V13.125C11.25 13.4702 11.5298 13.75 11.875 13.75C12.2202 13.75 12.5 13.4702 12.5 13.125Z" fill="var(--fill-0, #12151F)"/>
<path fill-rule="evenodd" clip-rule="evenodd" d="M8.125 1.25C7.62772 1.25 7.15081 1.44754 6.79917 1.79917C6.44754 2.15081 6.25 2.62772 6.25 3.125V3.75L4.37715 3.75L4.375 3.75L4.37285 3.75L3.12469 3.75C2.77952 3.75 2.49969 4.02983 2.49969 4.375C2.49969 4.72018 2.77952 5 3.12469 5H3.75V16.25C3.75 16.5815 3.8817 16.8995 4.11612 17.1339C4.35054 17.3683 4.66848 17.5 5 17.5H15C15.3315 17.5 15.6495 17.3683 15.8839 17.1339C16.1183 16.8995 16.25 16.5815 16.25 16.25V5H16.8747C17.2199 5 17.4997 4.72018 17.4997 4.375C17.4997 4.02982 17.2199 3.75 16.8747 3.75L13.75 3.75V3.125C13.75 2.62772 13.5525 2.15081 13.2008 1.79917C12.8492 1.44754 12.3723 1.25 11.875 1.25H8.125ZM12.5 3.75V3.125C12.5 2.95924 12.4342 2.80027 12.3169 2.68306C12.1997 2.56585 12.0408 2.5 11.875 2.5H8.125C7.95924 2.5 7.80027 2.56585 7.68306 2.68306C7.56585 2.80027 7.5 2.95924 7.5 3.125V3.75L12.5 3.75ZM5 5V16.25H15V5L5 5Z" fill="var(--fill-0, #12151F)"/>
</g>
</svg>
