<svg preserveAspectRatio="none" width="100%" height="100%" overflow="visible" style="display: block;" viewBox="0 0 18 18" fill="none" xmlns="http://www.w3.org/2000/svg">
<g id="vector">
<path fill-rule="evenodd" clip-rule="evenodd" d="M8.46974 0.2196C8.76262 -0.0732002 9.23738 -0.0732002 9.53026 0.2196L13.4678 4.15607C13.7607 4.44892 13.7608 4.9238 13.4679 5.21673C13.175 5.50966 12.7002 5.50972 12.4072 5.21687L9 1.81052L5.59276 5.21687C5.29983 5.50972 4.82496 5.50966 4.5321 5.21673C4.23925 4.9238 4.23931 4.44892 4.53224 4.15607L8.46974 0.2196Z" fill="var(--fill-0, #989FB3)"/>
<path fill-rule="evenodd" clip-rule="evenodd" d="M9 0.00276328C9.41421 0.00276328 9.75 0.33855 9.75 0.752763V11.25C9.75 11.6642 9.41421 12 9 12C8.58579 12 8.25 11.6642 8.25 11.25V0.752763C8.25 0.33855 8.58579 0.00276328 9 0.00276328Z" fill="var(--fill-0, #989FB3)"/>
<path fill-rule="evenodd" clip-rule="evenodd" d="M0.75 10.5C1.16421 10.5 1.5 10.8358 1.5 11.25V16.5H16.5V11.25C16.5 10.8358 16.8358 10.5 17.25 10.5C17.6642 10.5 18 10.8358 18 11.25V16.5C18 16.8978 17.842 17.2794 17.5607 17.5607C17.2794 17.842 16.8978 18 16.5 18H1.5C1.10218 18 0.720645 17.842 0.43934 17.5607C0.158035 17.2794 0 16.8978 0 16.5V11.25C0 10.8358 0.335786 10.5 0.75 10.5Z" fill="var(--fill-0, #989FB3)"/>
</g>
</svg>
