<svg preserveAspectRatio="none" width="100%" height="100%" overflow="visible" style="display: block;" viewBox="0 0 12 12" fill="none" xmlns="http://www.w3.org/2000/svg">
<g id="vector">
<path fill-rule="evenodd" clip-rule="evenodd" d="M5.64649 0.1464C5.84174 -0.0488001 6.15826 -0.0488001 6.35351 0.1464L8.97851 2.77071C9.17379 2.96595 9.17384 3.28253 8.9786 3.47782C8.78336 3.67311 8.46678 3.67315 8.27149 3.47791L6 1.20701L3.72851 3.47791C3.53322 3.67315 3.21664 3.67311 3.0214 3.47782C2.82616 3.28253 2.82621 2.96595 3.02149 2.77071L5.64649 0.1464Z" fill="var(--fill-0, #475067)"/>
<path fill-rule="evenodd" clip-rule="evenodd" d="M6 0.00184219C6.27614 0.00184219 6.5 0.2257 6.5 0.501842V7.5C6.5 7.77614 6.27614 8 6 8C5.72386 8 5.5 7.77614 5.5 7.5V0.501842C5.5 0.2257 5.72386 0.00184219 6 0.00184219Z" fill="var(--fill-0, #475067)"/>
<path fill-rule="evenodd" clip-rule="evenodd" d="M0.5 7C0.776142 7 1 7.22386 1 7.5V11H11V7.5C11 7.22386 11.2239 7 11.5 7C11.7761 7 12 7.22386 12 7.5V11C12 11.2652 11.8946 11.5196 11.7071 11.7071C11.5196 11.8946 11.2652 12 11 12H1C0.734784 12 0.48043 11.8946 0.292893 11.7071C0.105357 11.5196 0 11.2652 0 11V7.5C0 7.22386 0.223858 7 0.5 7Z" fill="var(--fill-0, #475067)"/>
</g>
</svg>
