<svg width="32" height="32" viewBox="0 0 32 32" fill="none" xmlns="http://www.w3.org/2000/svg">
<path fill-rule="evenodd" clip-rule="evenodd" d="M13.7236 5.71719C14.7071 4.0943 17.2929 4.0943 18.2765 5.71719L28.9431 23.0572C29.9266 24.6801 28.7537 26.857 26.7866 26.857H5.45341C3.48633 26.857 2.31342 24.6801 3.29695 23.0572L13.7236 5.71719ZM15.8667 10.8572C15.2777 10.8572 14.8 11.3349 14.8 11.9239V17.3524C14.8 17.9414 15.2777 18.4191 15.8667 18.4191H16.1333C16.7224 18.4191 17.2 17.9414 17.2 17.3524V11.9239C17.2 11.3349 16.7224 10.8572 16.1333 10.8572H15.8667ZM16 22.8572C16.8837 22.8572 17.6 22.1409 17.6 21.2572C17.6 20.3731 16.8837 19.6572 16 19.6572C15.1163 19.6572 14.4 20.3731 14.4 21.2572C14.4 22.1409 15.1163 22.8572 16 22.8572Z" fill="#EE8402"/>
</svg>
