<svg width="32" height="32" viewBox="0 0 28 25" fill="none" xmlns="http://www.w3.org/2000/svg">
<path fill-rule="evenodd" clip-rule="evenodd" d="M13.997 9C14.5493 9 14.997 9.44772 14.997 10V15C14.997 15.5523 14.5493 16 13.997 16C13.4447 16 12.997 15.5523 12.997 15V10C12.997 9.44772 13.4447 9 13.997 9Z" fill="#EE8402"/>
<path fill-rule="evenodd" clip-rule="evenodd" d="M12.4985 0.401097C12.9542 0.138324 13.471 0 13.997 0C14.5231 0 15.0399 0.138324 15.4956 0.401097C15.9513 0.66387 16.3299 1.04185 16.5935 1.49713L27.5905 20.4962C27.8544 20.9522 27.9936 21.4697 27.9941 21.9966C27.9945 22.5234 27.8562 23.0412 27.593 23.4976C27.3298 23.9541 26.951 24.3331 26.4948 24.5967C26.0386 24.8603 25.521 24.999 24.9941 24.999H3.00001C2.47311 24.999 1.95551 24.8603 1.49929 24.5967C1.04306 24.3331 0.664292 23.9541 0.401098 23.4976C0.137904 23.0412 -0.000434743 22.5234 1.02633e-06 21.9966C0.000436796 21.4697 0.139632 20.9522 0.40358 20.4962L11.4006 1.49714C11.6641 1.04185 12.0428 0.66387 12.4985 0.401097ZM13.997 2C13.8217 2 13.6494 2.04611 13.4975 2.1337C13.3456 2.22129 13.2194 2.34728 13.1316 2.49904L2.13453 21.4981C2.04654 21.6501 2.00015 21.8226 2 21.9982C1.99986 22.1738 2.04597 22.3464 2.1337 22.4986C2.22143 22.6507 2.34769 22.7771 2.49976 22.8649C2.65184 22.9528 2.82438 22.999 3.00001 22.999H24.9941C25.1697 22.999 25.3422 22.9528 25.4943 22.8649C25.6464 22.7771 25.7726 22.6507 25.8604 22.4986C25.9481 22.3464 25.9942 22.1738 25.9941 21.9982C25.9939 21.8226 25.9475 21.6501 25.8595 21.4981L14.8625 2.49904C14.7747 2.34728 14.6485 2.22129 14.4966 2.1337C14.3447 2.04611 14.1724 2 13.997 2Z" fill="#EE8402"/>
<path d="M13.997 21C14.8254 21 15.497 20.3284 15.497 19.5C15.497 18.6716 14.8254 18 13.997 18C13.1686 18 12.497 18.6716 12.497 19.5C12.497 20.3284 13.1686 21 13.997 21Z" fill="#EE8402"/>
</svg>
