<svg preserveAspectRatio="none" width="100%" height="100%" overflow="visible" style="display: block;" viewBox="0 0 16 16" fill="none" xmlns="http://www.w3.org/2000/svg">
<g id="vector">
<path fill-rule="evenodd" clip-rule="evenodd" d="M7.87879 1.21212C4.19689 1.21212 1.21212 4.19689 1.21212 7.87879C1.21212 11.5607 4.19689 14.5455 7.87879 14.5455C11.5607 14.5455 14.5455 11.5607 14.5455 7.87879C14.5455 4.19689 11.5607 1.21212 7.87879 1.21212ZM0 7.87879C0 3.52745 3.52745 0 7.87879 0C12.2301 0 15.7576 3.52745 15.7576 7.87879C15.7576 12.2301 12.2301 15.7576 7.87879 15.7576C3.52745 15.7576 0 12.2301 0 7.87879Z" fill="var(--fill-0, #FCFCFC)"/>
<path fill-rule="evenodd" clip-rule="evenodd" d="M10.7316 5.026C10.9683 5.26268 10.9683 5.64641 10.7316 5.8831L5.8831 10.7316C5.64641 10.9683 5.26268 10.9683 5.026 10.7316C4.78931 10.4949 4.78931 10.1112 5.026 9.87448L9.87448 5.026C10.1112 4.78931 10.4949 4.78931 10.7316 5.026Z" fill="var(--fill-0, #FCFCFC)"/>
<path fill-rule="evenodd" clip-rule="evenodd" d="M5.026 5.026C5.26268 4.78931 5.64641 4.78931 5.8831 5.026L10.7316 9.87448C10.9683 10.1112 10.9683 10.4949 10.7316 10.7316C10.4949 10.9683 10.1112 10.9683 9.87448 10.7316L5.026 5.8831C4.78931 5.64641 4.78931 5.26268 5.026 5.026Z" fill="var(--fill-0, #FCFCFC)"/>
</g>
</svg>
