<svg preserveAspectRatio="none" width="100%" height="100%" overflow="visible" style="display: block;" viewBox="0 0 16 16" fill="none" xmlns="http://www.w3.org/2000/svg">
<g id="vector">
<path d="M8.80595 3.99967L6.13929 11.9997H3.99963C3.72349 11.9997 3.49963 12.2235 3.49963 12.4997C3.49963 12.7758 3.72349 12.9997 3.99963 12.9997H6.48602C6.49518 12.9999 6.50432 12.9999 6.51342 12.9997H8.99963C9.27578 12.9997 9.49963 12.7758 9.49963 12.4997C9.49963 12.2235 9.27578 11.9997 8.99963 11.9997H7.19338L9.86005 3.99967H11.9996C12.2758 3.99967 12.4996 3.77582 12.4996 3.49967C12.4996 3.22353 12.2758 2.99967 11.9996 2.99967H9.50856C9.50256 2.99957 9.49657 2.99957 9.49059 2.99967H6.99963C6.72349 2.99967 6.49963 3.22353 6.49963 3.49967C6.49963 3.77582 6.72349 3.99967 6.99963 3.99967H8.80595Z" fill="var(--fill-0, #666E85)"/>
</g>
</svg>
